<svg version="1.1" xmlns="http://www.w3.org/2000/svg" viewBox="0 0 933.9524986068152 669.4719589737059" width="933.9524986068152" height="669.4719589737059">
  <!-- svg-source:excalidraw -->
  
  <defs>
    <style class="style-fonts">
      @font-face {
        font-family: "Virgil";
        src: url("https://excalidraw.com/Virgil.woff2");
      }
      @font-face {
        font-family: "Cascadia";
        src: url("https://excalidraw.com/Cascadia.woff2");
      }
    </style>
    
  </defs>
  <rect x="0" y="0" width="933.9524986068152" height="669.4719589737059" fill="#ffffff"></rect><g stroke-linecap="round" transform="translate(454.61538461538464 175.5173131111033) rotate(0 87.57575757575754 123.63636363636363)"><path d="M7.86 8.16 C7.86 8.16, 7.86 8.16, 7.86 8.16 M7.86 8.16 C7.86 8.16, 7.86 8.16, 7.86 8.16 M3.66 19.09 C4.98 16, 10.16 11.31, 18.1 2.48 M3.66 19.09 C6.58 15.16, 11.07 11.15, 18.1 2.48 M2.75 26.24 C11.28 18.4, 15.09 12.05, 24.4 1.33 M2.75 26.24 C9.14 18.95, 16.63 10.51, 24.4 1.33 M2.48 32.64 C12.48 22.64, 19.73 13.27, 30.7 0.18 M2.48 32.64 C12.01 22.03, 19.38 12.45, 30.7 0.18 M2.88 38.28 C10.73 29.54, 21.64 16.17, 34.37 2.05 M2.88 38.28 C9.03 31.06, 15.59 21.68, 34.37 2.05 M2.62 44.68 C14.97 30.56, 25.46 19.11, 39.36 2.41 M2.62 44.68 C14.23 31.01, 26.04 19.75, 39.36 2.41 M2.36 51.07 C13.17 41.3, 22.81 28.99, 45 2.02 M2.36 51.07 C17.89 32.81, 34.34 14.37, 45 2.02 M2.75 56.72 C16.89 40.21, 29.53 27.26, 49.99 2.38 M2.75 56.72 C13.4 44.57, 22.99 33.96, 49.99 2.38 M2.49 63.11 C22.25 40.23, 39.33 17.9, 55.63 1.98 M2.49 63.11 C19.94 42.56, 38.84 21.85, 55.63 1.98 M2.23 69.51 C17.61 48.58, 35.94 29.17, 60.62 2.34 M2.23 69.51 C22.69 46.33, 42.94 21.06, 60.62 2.34 M2.62 75.16 C18.42 57.07, 32.25 40.27, 66.26 1.95 M2.62 75.16 C27.59 46.44, 53.84 16.03, 66.26 1.95 M2.36 81.55 C22.18 61.06, 40.36 36.09, 71.25 2.31 M2.36 81.55 C18.87 61.36, 36.51 42.28, 71.25 2.31 M2.76 87.2 C27.8 56.36, 53.52 26.55, 76.89 1.91 M2.76 87.2 C27.57 58.54, 54.76 28.44, 76.89 1.91 M2.49 93.59 C21.16 70.11, 39.61 49.97, 81.88 2.27 M2.49 93.59 C30.28 60.25, 58.52 27.54, 81.88 2.27 M2.23 99.99 C33.75 64.2, 67.57 28, 86.86 2.63 M2.23 99.99 C29.65 66.62, 57.13 35.76, 86.86 2.63 M2.63 105.64 C38.14 67.2, 72.64 27.97, 92.51 2.24 M2.63 105.64 C34.05 70.89, 64.56 35.7, 92.51 2.24 M2.37 112.03 C22.33 86.27, 43 65.68, 97.49 2.6 M2.37 112.03 C40.41 69.15, 76.64 26.78, 97.49 2.6 M2.1 118.43 C24.1 92.74, 43.29 67.96, 103.14 2.21 M2.1 118.43 C23.89 90.52, 48.9 63.94, 103.14 2.21 M2.5 124.07 C41.14 75.03, 83.99 31.88, 108.12 2.57 M2.5 124.07 C36.7 84.14, 71.53 42.93, 108.12 2.57 M2.24 130.47 C28.68 98.66, 54.61 69.23, 113.77 2.17 M2.24 130.47 C31.84 97.74, 59.68 63.47, 113.77 2.17 M2.63 136.11 C43.8 89.05, 83.45 45.41, 118.76 2.53 M2.63 136.11 C31.43 102.34, 60.74 70.12, 118.76 2.53 M2.37 142.51 C35.77 105.01, 67.42 65.3, 124.4 2.14 M2.37 142.51 C49.25 87.09, 98.02 33.2, 124.4 2.14 M2.11 148.91 C28.62 120.45, 53.82 86.76, 129.39 2.5 M2.11 148.91 C52.13 90.96, 102.54 34.05, 129.39 2.5 M2.5 154.55 C42.48 107.97, 84.23 58.82, 134.37 2.86 M2.5 154.55 C54.93 95.84, 106.11 35.14, 134.37 2.86 M2.24 160.95 C37.19 121.15, 70.76 80.76, 140.02 2.46 M2.24 160.95 C44.7 112.76, 87.07 63.88, 140.02 2.46 M1.98 167.35 C35.06 125.99, 70.57 86.14, 145 2.82 M1.98 167.35 C31.2 132.03, 59.97 97.62, 145 2.82 M2.38 172.99 C58.2 106.88, 115.32 42.69, 151.3 1.67 M2.38 172.99 C48.32 120.71, 94.69 67.42, 151.3 1.67 M2.11 179.39 C62.63 111.58, 124.6 40.95, 155.63 2.79 M2.11 179.39 C56.99 115.49, 112.09 51.68, 155.63 2.79 M2.51 185.03 C41.4 139.37, 80.79 92.1, 159.96 3.9 M2.51 185.03 C62.84 114.42, 125.29 44.11, 159.96 3.9 M2.25 191.43 C56.33 128.88, 112.37 68.12, 163.64 5.77 M2.25 191.43 C55.3 129.47, 108.38 69.36, 163.64 5.77 M1.99 197.83 C65.36 124.09, 128.97 52.71, 166.66 8.4 M1.99 197.83 C55.52 136.13, 108.71 75.76, 166.66 8.4 M2.38 203.47 C48.52 147.3, 96.12 96, 169.68 11.02 M2.38 203.47 C67.92 127.43, 132.92 51.84, 169.68 11.02 M2.12 209.87 C41.23 166.42, 77.8 122.88, 172.69 13.64 M2.12 209.87 C58.92 142.56, 118.62 73.99, 172.69 13.64 M1.86 216.27 C55.02 153.99, 111.91 92.17, 173.75 18.53 M1.86 216.27 C67.39 140.36, 135.03 62.73, 173.75 18.53 M2.25 221.91 C51.17 165.2, 102.45 108.63, 174.8 23.42 M2.25 221.91 C49.89 166.36, 99.25 108.69, 174.8 23.42 M3.3 226.8 C62.18 159.88, 120.47 92.6, 175.19 29.06 M3.3 226.8 C67.03 153.73, 128.94 82.49, 175.19 29.06 M4.35 231.69 C44.42 185.76, 83.76 139.39, 176.9 33.2 M4.35 231.69 C47.26 184.74, 88.3 135.65, 176.9 33.2 M6.06 235.82 C63.86 170.01, 120.12 100.92, 176.64 39.6 M6.06 235.82 C54.49 180.64, 102.53 126.14, 176.64 39.6 M8.42 239.2 C67.07 170.53, 127.08 103.17, 177.03 45.24 M8.42 239.2 C54.96 185.65, 103.98 129.96, 177.03 45.24 M11.44 241.82 C62.76 181.89, 112.23 125.73, 176.77 51.64 M11.44 241.82 C70.37 176.84, 128.52 110.81, 176.77 51.64 M14.46 244.45 C63.44 187.68, 111.89 132.1, 176.51 58.03 M14.46 244.45 C73.8 175.64, 134.01 106.3, 176.51 58.03 M18.79 245.56 C70.28 185.28, 123.95 125.78, 176.9 63.68 M18.79 245.56 C65 190.4, 111.22 137.45, 176.9 63.68 M23.12 246.68 C80.38 178.79, 141.32 110.2, 176.64 70.08 M23.12 246.68 C58.27 206.67, 94.23 166.71, 176.64 70.08 M28.11 247.04 C70.76 197.9, 114.24 146.42, 177.04 75.72 M28.11 247.04 C68.74 201.65, 109.76 153.77, 177.04 75.72 M32.44 248.15 C67.05 206.18, 103.15 165.79, 176.77 82.12 M32.44 248.15 C71.09 203.82, 108.75 161.89, 176.77 82.12 M38.08 247.76 C91.54 185.46, 146.69 122.93, 176.51 88.51 M38.08 247.76 C89.77 190.93, 139.52 133.15, 176.51 88.51 M43.07 248.12 C92.18 189.94, 143.96 129.82, 176.91 94.16 M43.07 248.12 C76.01 210.25, 110.49 172.79, 176.91 94.16 M48.71 247.72 C76.92 218.09, 99.15 189.62, 176.65 100.56 M48.71 247.72 C84.68 206.11, 118.43 166.61, 176.65 100.56 M53.7 248.08 C84.48 213.45, 112.92 176.01, 177.04 106.2 M53.7 248.08 C85.62 214.3, 116.14 178.8, 177.04 106.2 M59.34 247.69 C84.9 221.61, 107.19 192.01, 176.78 112.6 M59.34 247.69 C87.89 215.55, 115.29 183.29, 176.78 112.6 M64.33 248.05 C100.38 208.63, 138.58 166.58, 176.52 118.99 M64.33 248.05 C97.59 210.52, 131.34 171.62, 176.52 118.99 M69.97 247.65 C99.46 212.08, 127.38 180.31, 176.91 124.64 M69.97 247.65 C103.94 209.82, 136.78 171, 176.91 124.64 M74.96 248.01 C99.5 217.29, 128.51 185.56, 176.65 131.03 M74.96 248.01 C107.39 211.11, 139.18 173.72, 176.65 131.03 M80.6 247.62 C99.84 224, 121.66 201.6, 177.04 136.68 M80.6 247.62 C108.95 214.44, 136.84 183.18, 177.04 136.68 M85.59 247.98 C118.22 211.02, 147.78 174.97, 176.78 143.08 M85.59 247.98 C119.33 209.47, 153.26 169.99, 176.78 143.08 M91.23 247.59 C122.83 211.13, 156.98 173.73, 176.52 149.47 M91.23 247.59 C124.5 210.61, 156.72 172.3, 176.52 149.47 M96.22 247.95 C113.52 228.74, 132.4 207.51, 176.92 155.12 M96.22 247.95 C115.99 226.28, 136.33 202.13, 176.92 155.12 M101.86 247.55 C121.23 227.79, 140.23 203.6, 176.66 161.51 M101.86 247.55 C127.3 219.41, 151.41 190.69, 176.66 161.51 M106.85 247.91 C133.53 218.54, 155.26 188.13, 177.05 167.16 M106.85 247.91 C124.84 226, 144.89 205.24, 177.05 167.16 M112.49 247.52 C130.3 226.18, 149.62 206.28, 176.79 173.55 M112.49 247.52 C131.98 225.2, 152.08 204.02, 176.79 173.55 M117.48 247.88 C129.6 231.91, 144.06 218.1, 176.53 179.95 M117.48 247.88 C132.19 230.47, 147.05 211.84, 176.53 179.95 M122.47 248.24 C136.96 229.13, 152.66 210.41, 176.92 185.6 M122.47 248.24 C143.1 224.9, 163.84 200.09, 176.92 185.6 M128.11 247.84 C141.27 232.3, 157.37 216.62, 176.66 191.99 M128.11 247.84 C138.49 235.45, 150.47 222.47, 176.66 191.99 M133.1 248.2 C141.91 238.68, 151.19 224.71, 177.05 197.64 M133.1 248.2 C146.24 231.97, 158.46 218.77, 177.05 197.64 M138.74 247.81 C154.14 231.53, 164.85 217.1, 176.79 204.03 M138.74 247.81 C147.02 239.07, 154.75 228.54, 176.79 204.03 M143.73 248.17 C155.34 234.89, 167.03 219.63, 176.53 210.43 M143.73 248.17 C153.45 237.73, 162.39 227.04, 176.53 210.43 M150.03 247.02 C161.64 237.29, 171.11 224.52, 176.27 216.83 M150.03 247.02 C156.65 238.53, 165.76 230.34, 176.27 216.83 M156.33 245.87 C162.3 236.9, 170.18 231.3, 175.35 223.98 M156.33 245.87 C160.61 240.7, 165.14 234.81, 175.35 223.98" stroke="#b2f2bb" stroke-width="0.5" fill="none"></path><path d="M32 0 M32 0 C67.63 0.42, 100.66 -0.8, 143.15 0 M32 0 C73.28 -0.96, 115.34 0, 143.15 0 M143.15 0 C165.87 1.57, 176.01 11.08, 175.15 32 M143.15 0 C165.23 2.04, 174.13 11.61, 175.15 32 M175.15 32 C173.69 91.65, 175.85 146.89, 175.15 215.27 M175.15 32 C174.44 79.74, 174.88 127.53, 175.15 215.27 M175.15 215.27 C175.29 237.46, 164.35 247.04, 143.15 247.27 M175.15 215.27 C173.94 236.19, 166.47 247.9, 143.15 247.27 M143.15 247.27 C117.5 248.67, 87.07 246.04, 32 247.27 M143.15 247.27 C100.4 247.51, 59.37 246.65, 32 247.27 M32 247.27 C8.69 246.35, 1.66 238.05, 0 215.27 M32 247.27 C12.12 245.65, 0.81 235.43, 0 215.27 M0 215.27 C-2.1 150.91, 0.09 89.12, 0 32 M0 215.27 C-0.61 159.45, -0.57 105.11, 0 32 M0 32 C-0.31 9.89, 10.83 0.81, 32 0 M0 32 C2.27 8.6, 10.79 1.92, 32 0" stroke="#343a40" stroke-width="1" fill="none"></path></g><g stroke-linecap="round" transform="translate(10 178.5942361880264) rotate(0 87.57575757575756 123.63636363636363)"><path d="M7.86 8.16 C7.86 8.16, 7.86 8.16, 7.86 8.16 M7.86 8.16 C7.86 8.16, 7.86 8.16, 7.86 8.16 M3.66 19.09 C8.95 13.86, 13.61 7.92, 18.1 2.48 M3.66 19.09 C8.33 14.16, 12.66 7.21, 18.1 2.48 M2.75 26.24 C8.42 20.84, 14.83 13.35, 24.4 1.33 M2.75 26.24 C8.02 18.17, 14.93 10.58, 24.4 1.33 M2.48 32.64 C10.95 22.85, 18.91 10.64, 30.7 0.18 M2.48 32.64 C11.82 22.32, 20.42 12.08, 30.7 0.18 M2.88 38.28 C10.57 29.24, 19.43 17.34, 34.37 2.05 M2.88 38.28 C13.93 26.18, 25.34 12.29, 34.37 2.05 M2.62 44.68 C14.95 28.74, 26.14 16.83, 39.36 2.41 M2.62 44.68 C14.62 32.08, 26.82 17.99, 39.36 2.41 M2.36 51.07 C20.29 33.64, 34.89 15.44, 45 2.02 M2.36 51.07 C11.11 40.56, 18.84 31.25, 45 2.02 M2.75 56.72 C19.65 36.53, 38.34 14.41, 49.99 2.38 M2.75 56.72 C14.91 42.94, 26.53 28.38, 49.99 2.38 M2.49 63.11 C19.05 45.12, 32.4 26.9, 55.63 1.98 M2.49 63.11 C19.97 42.24, 36.46 23.25, 55.63 1.98 M2.23 69.51 C20.98 46.21, 40.19 27.4, 60.62 2.34 M2.23 69.51 C22.22 45.67, 44.17 21.28, 60.62 2.34 M2.62 75.16 C16.85 57.67, 31.08 38.92, 66.26 1.95 M2.62 75.16 C27.51 46.91, 53.19 17.79, 66.26 1.95 M2.36 81.55 C28.25 51.79, 55.05 21.84, 71.25 2.31 M2.36 81.55 C27.87 53.59, 51.83 23.34, 71.25 2.31 M2.76 87.2 C30.46 57.08, 58.82 23.95, 76.89 1.91 M2.76 87.2 C21.57 68.03, 37.38 48.32, 76.89 1.91 M2.49 93.59 C21.57 71.88, 38.23 52.32, 81.88 2.27 M2.49 93.59 C33.82 57.28, 65.92 21.82, 81.88 2.27 M2.23 99.99 C23.85 74.03, 49.32 43.5, 86.86 2.63 M2.23 99.99 C23.57 74.86, 46.54 47.63, 86.86 2.63 M2.63 105.64 C26.64 77.86, 46.58 54.23, 92.51 2.24 M2.63 105.64 C23.05 81.04, 45.92 55.4, 92.51 2.24 M2.37 112.03 C38.77 72.02, 75.7 28.15, 97.49 2.6 M2.37 112.03 C29.8 81.65, 55.95 51.54, 97.49 2.6 M2.1 118.43 C36.48 76.86, 69.54 39.17, 103.14 2.21 M2.1 118.43 C29.27 88.53, 55.74 57.02, 103.14 2.21 M2.5 124.07 C35.51 85.76, 70.9 44.33, 108.12 2.57 M2.5 124.07 C27.5 95.5, 54.34 66.06, 108.12 2.57 M2.24 130.47 C33.01 94.55, 68.26 56.28, 113.77 2.17 M2.24 130.47 C37.46 90.64, 71.88 51.99, 113.77 2.17 M2.63 136.11 C35.95 101.29, 63.6 65.17, 118.76 2.53 M2.63 136.11 C35.24 98.12, 68.69 60.75, 118.76 2.53 M2.37 142.51 C50.64 85.71, 94.69 34.39, 124.4 2.14 M2.37 142.51 C50.7 87.98, 98.73 31.27, 124.4 2.14 M2.11 148.91 C46.6 98.09, 92.38 43.01, 129.39 2.5 M2.11 148.91 C44.37 98.99, 88.42 49.78, 129.39 2.5 M2.5 154.55 C30.76 124.04, 55.27 93.36, 134.37 2.86 M2.5 154.55 C30.63 120.91, 59.35 89.64, 134.37 2.86 M2.24 160.95 C33.17 122.77, 66.48 87.08, 140.02 2.46 M2.24 160.95 C43.08 112.75, 85.14 65.07, 140.02 2.46 M1.98 167.35 C30.54 132.5, 63.31 94.49, 145 2.82 M1.98 167.35 C35.23 126.31, 68.82 86.73, 145 2.82 M2.38 172.99 C54.74 113.05, 104.44 52.04, 151.3 1.67 M2.38 172.99 C39.05 132.46, 75.77 89.23, 151.3 1.67 M2.11 179.39 C38.37 140.86, 71.65 99.53, 155.63 2.79 M2.11 179.39 C38.82 140.36, 72.29 100.23, 155.63 2.79 M2.51 185.03 C40.65 142.58, 74.67 100.04, 159.96 3.9 M2.51 185.03 C34.93 148.21, 67.48 110.76, 159.96 3.9 M2.25 191.43 C49.68 139.55, 92.43 87.62, 163.64 5.77 M2.25 191.43 C50.01 136, 96.94 83.31, 163.64 5.77 M1.99 197.83 C38.67 153.05, 76.85 109.23, 166.66 8.4 M1.99 197.83 C40.78 152.93, 80.01 108.19, 166.66 8.4 M2.38 203.47 C69.28 127.3, 135.56 51.85, 169.68 11.02 M2.38 203.47 C42.45 156.88, 82.23 111.99, 169.68 11.02 M2.12 209.87 C65.48 135.3, 130.37 59.63, 172.69 13.64 M2.12 209.87 C55.08 147.86, 108.42 86.67, 172.69 13.64 M1.86 216.27 C36.63 173.74, 71.07 133.52, 173.75 18.53 M1.86 216.27 C44.86 166.58, 86.83 119, 173.75 18.53 M2.25 221.91 C57.05 159.58, 111.67 93.55, 174.8 23.42 M2.25 221.91 C41.26 175.25, 81.32 128.61, 174.8 23.42 M3.3 226.8 C59.71 163.4, 112.95 102.34, 175.19 29.06 M3.3 226.8 C65.71 154.06, 129.75 79.86, 175.19 29.06 M4.35 231.69 C67.94 156.01, 134.61 79.32, 176.9 33.2 M4.35 231.69 C61.18 166.09, 119.19 101.03, 176.9 33.2 M6.06 235.82 C70.1 159, 134.9 84.46, 176.64 39.6 M6.06 235.82 C47.83 187.63, 89.83 139.59, 176.64 39.6 M8.42 239.2 C61.96 180.06, 111.3 118.13, 177.03 45.24 M8.42 239.2 C70.59 169.06, 132.27 96.71, 177.03 45.24 M11.44 241.82 C77.16 166.1, 138.73 93, 176.77 51.64 M11.44 241.82 C74.17 170.71, 136.39 99.2, 176.77 51.64 M14.46 244.45 C66.57 182.1, 119.47 123.1, 176.51 58.03 M14.46 244.45 C51.09 203.84, 86.43 163.46, 176.51 58.03 M18.79 245.56 C78.48 176.26, 140.14 106.49, 176.9 63.68 M18.79 245.56 C57.61 200.66, 96.11 156.86, 176.9 63.68 M23.12 246.68 C60.34 200.08, 99.9 157.87, 176.64 70.08 M23.12 246.68 C54.26 209.85, 85.04 173, 176.64 70.08 M28.11 247.04 C81.61 188.63, 135.12 125.63, 177.04 75.72 M28.11 247.04 C59.53 210.28, 91.95 173.19, 177.04 75.72 M32.44 248.15 C67.37 206.97, 99.6 168.74, 176.77 82.12 M32.44 248.15 C84.7 188.35, 136.95 128.81, 176.77 82.12 M38.08 247.76 C83.55 192.24, 132.02 140.54, 176.51 88.51 M38.08 247.76 C69.13 211.56, 100.53 176.22, 176.51 88.51 M43.07 248.12 C94.45 187.17, 149.05 124.04, 176.91 94.16 M43.07 248.12 C87.12 195.17, 133.43 142.74, 176.91 94.16 M48.71 247.72 C91.68 198.88, 137.69 146.12, 176.65 100.56 M48.71 247.72 C84.48 204.84, 121.39 163.14, 176.65 100.56 M53.7 248.08 C99.09 196.86, 144.24 145.78, 177.04 106.2 M53.7 248.08 C96.26 199.13, 139.06 149.36, 177.04 106.2 M59.34 247.69 C107.43 196.69, 153.33 144, 176.78 112.6 M59.34 247.69 C106.11 194.7, 153.49 140.35, 176.78 112.6 M64.33 248.05 C103.44 201.11, 145.18 156.28, 176.52 118.99 M64.33 248.05 C105.71 198.06, 149.69 148, 176.52 118.99 M69.97 247.65 C97.23 213.22, 128.02 179.03, 176.91 124.64 M69.97 247.65 C94.06 219.79, 117.62 193.55, 176.91 124.64 M74.96 248.01 C103.63 211.83, 134.22 178.13, 176.65 131.03 M74.96 248.01 C95.78 224.37, 116.83 200.14, 176.65 131.03 M80.6 247.62 C100.75 221.05, 123.15 197.62, 177.04 136.68 M80.6 247.62 C118.24 204.05, 155.06 160.71, 177.04 136.68 M85.59 247.98 C113.69 216.66, 143.14 183.14, 176.78 143.08 M85.59 247.98 C120.98 208.17, 156.06 168.1, 176.78 143.08 M91.23 247.59 C110.21 227.47, 128.05 202.26, 176.52 149.47 M91.23 247.59 C112.37 222.74, 132.46 198.79, 176.52 149.47 M96.22 247.95 C114.64 225.53, 132.5 207.97, 176.92 155.12 M96.22 247.95 C127.12 211.67, 160.48 174.74, 176.92 155.12 M101.86 247.55 C126.98 220.43, 148.97 195.63, 176.66 161.51 M101.86 247.55 C121.39 223.39, 141.98 201.02, 176.66 161.51 M106.85 247.91 C124.53 226.31, 138.42 207.34, 177.05 167.16 M106.85 247.91 C135.21 217.84, 161.99 186.19, 177.05 167.16 M112.49 247.52 C126.44 229.78, 143.24 211.9, 176.79 173.55 M112.49 247.52 C129.14 229.41, 144.86 210.55, 176.79 173.55 M117.48 247.88 C132.89 226.93, 152.19 208.5, 176.53 179.95 M117.48 247.88 C139.6 222.46, 162.54 194.24, 176.53 179.95 M122.47 248.24 C138.17 231.16, 155.14 213.27, 176.92 185.6 M122.47 248.24 C139.69 228.11, 157.33 209.19, 176.92 185.6 M128.11 247.84 C143.09 232.6, 153.87 220.37, 176.66 191.99 M128.11 247.84 C141.98 231.11, 156.16 215.15, 176.66 191.99 M133.1 248.2 C148.58 227.84, 167.76 210.67, 177.05 197.64 M133.1 248.2 C145.7 231.58, 159.77 217.07, 177.05 197.64 M138.74 247.81 C147.68 240.42, 154.6 228.93, 176.79 204.03 M138.74 247.81 C149.64 235.71, 159.85 221.67, 176.79 204.03 M143.73 248.17 C155.73 234.16, 166.96 219.61, 176.53 210.43 M143.73 248.17 C150.45 239.27, 159.15 231.71, 176.53 210.43 M150.03 247.02 C157.78 238.43, 167.69 226.7, 176.27 216.83 M150.03 247.02 C155.75 241.48, 162.15 234.95, 176.27 216.83 M156.33 245.87 C160.55 240.23, 167.13 236.1, 175.35 223.98 M156.33 245.87 C163.39 237.78, 170.39 229.19, 175.35 223.98" stroke="#ffc9c9" stroke-width="0.5" fill="none"></path><path d="M32 0 M32 0 C66.35 2.93, 99.43 -0.45, 143.15 0 M32 0 C57.66 0.28, 81.43 0.77, 143.15 0 M143.15 0 C166.32 -0.85, 176.42 10.65, 175.15 32 M143.15 0 C162.77 2.04, 173.76 11.91, 175.15 32 M175.15 32 C173.71 96.99, 176.72 159.21, 175.15 215.27 M175.15 32 C172.94 88.62, 173.23 145.62, 175.15 215.27 M175.15 215.27 C175.38 237.28, 164.74 246.21, 143.15 247.27 M175.15 215.27 C174.37 234.84, 166.76 247.8, 143.15 247.27 M143.15 247.27 C103.52 246.94, 65.63 246.4, 32 247.27 M143.15 247.27 C105.9 246.52, 65.96 247.06, 32 247.27 M32 247.27 C10.15 247.38, -1.77 237.32, 0 215.27 M32 247.27 C9.85 248.27, -2.26 236.39, 0 215.27 M0 215.27 C-1.79 170.36, -1.11 126.09, 0 32 M0 215.27 C-0.3 165.91, -1.73 117.16, 0 32 M0 32 C1.65 11.02, 12.02 -1.19, 32 0 M0 32 C2.09 9.34, 9.35 1.39, 32 0" stroke="#343a40" stroke-width="1" fill="none"></path></g><g stroke-linecap="round" transform="translate(37.25407925407936 208.35647395026416) rotate(0 62 18)"><path d="M7.48 0.78 L119.11 -0.76 L121.78 5.76 L124.95 31.1 L119.76 35.15 L113.86 35.78 L3.81 35.26 L-0.49 30.15 L0.29 7.89 L0.31 1.36 L7.95 1.49" stroke="none" stroke-width="0" fill="#b2f2bb"></path><path d="M9 0 M9 0 C41.32 -2.68, 74.46 -1.36, 115 0 M115 0 C121.62 1.33, 122.58 1.57, 124 9 M124 9 C125.16 14.8, 124.03 21.21, 124 27 M124 27 C124.57 31.04, 121.95 34.56, 115 36 M115 36 C74.36 38.22, 33.21 35.83, 9 36 M9 36 C3.43 35.31, 0.78 33.55, 0 27 M0 27 C0.31 20.99, 0.09 14.56, 0 9 M0 9 C-0.89 2.71, 3.43 1.94, 9 0" stroke="#343a40" stroke-width="1.5" fill="none" stroke-dasharray="1.5 7"></path></g><g transform="translate(85.82204952995826 216.35647395026416) rotate(0 13.432029724121094 10)"><text x="13.432029724121094" y="0" font-family="Virgil, Segoe UI Emoji" font-size="16px" fill="#343a40" text-anchor="middle" style="white-space: pre;" direction="ltr" dominant-baseline="text-before-edge">[0]</text></g><g stroke-linecap="round" transform="translate(37.09090909090918 259.9881755819658) rotate(0 62 18)"><path d="M9.17 -1.32 L117.28 1.26 L124.95 5.23 L121.45 32.34 L120.61 33.53 L113.74 35.83 L4.01 34.65 L0.85 29.83 L-1.94 8.11 L1.2 3.74 L9.01 1.08" stroke="none" stroke-width="0" fill="#b2f2bb"></path><path d="M9 0 M9 0 C50.8 0.45, 89.77 2.32, 115 0 M115 0 C119.58 -1.43, 124.77 2.99, 124 9 M124 9 C124.15 14.59, 124.63 18.37, 124 27 M124 27 C124.95 31.56, 122.9 36.58, 115 36 M115 36 C75.96 35.6, 33.46 35.99, 9 36 M9 36 C3.78 36.55, 1.52 32, 0 27 M0 27 C-0.02 21.19, -0.82 12.91, 0 9 M0 9 C0.43 4.94, 2.81 -1.62, 9 0" stroke="#343a40" stroke-width="1.5" fill="none" stroke-dasharray="1.5 7"></path></g><g transform="translate(88.99488553133887 267.9881755819658) rotate(0 10.096023559570312 10)"><text x="10.096023559570312" y="0" font-family="Virgil, Segoe UI Emoji" font-size="16px" fill="#343a40" text-anchor="middle" style="white-space: pre;" direction="ltr" dominant-baseline="text-before-edge">[1]</text></g><g stroke-linecap="round" transform="translate(36.787878787878796 306.04878164257184) rotate(0 62 18)"><path d="M7.34 0.7 L120.45 0.73 L121.45 6.46 L122.3 30.72 L120.49 33.58 L113.95 35.22 L5.35 34.33 L-1.38 30.05 L-1.05 10.49 L2.26 3.33 L10.56 0.46" stroke="none" stroke-width="0" fill="#b2f2bb"></path><path d="M9 0 M9 0 C31.59 1.62, 51.53 -1.15, 115 0 M115 0 C121.77 -0.01, 124.18 4.29, 124 9 M124 9 C124.51 12.34, 124.86 17.91, 124 27 M124 27 C125.9 33.58, 122.73 37.23, 115 36 M115 36 C76.76 34.73, 38.43 35.97, 9 36 M9 36 C4.52 35, 1.68 33.24, 0 27 M0 27 C-0.8 20.57, 0.39 16.43, 0 9 M0 9 C-0.19 1.38, 1.98 -1.66, 9 0" stroke="#343a40" stroke-width="1.5" fill="none" stroke-dasharray="1.5 7"></path></g><g transform="translate(85.16384772098426 314.04878164257184) rotate(0 13.624031066894531 10)"><text x="13.624031066894531" y="0" font-family="Virgil, Segoe UI Emoji" font-size="16px" fill="#343a40" text-anchor="middle" style="white-space: pre;" direction="ltr" dominant-baseline="text-before-edge">[2]</text></g><g stroke-linecap="round" transform="translate(40.42424242424245 358.7760543698447) rotate(0 62 18)"><path d="M10.52 0.16 L116.95 1.96 L122.3 4.85 L122.18 30.76 L120.7 32.97 L115.29 34.89 L3.12 34.55 L-0.48 32.42 L0.01 10.08 L3.81 2.71 L7.15 1.72" stroke="none" stroke-width="0" fill="#b2f2bb"></path><path d="M9 0 M9 0 C36.57 -2.14, 67.76 -0.72, 115 0 M115 0 C121.18 1.29, 123.67 3.03, 124 9 M124 9 C124.91 13.13, 125.76 20.36, 124 27 M124 27 C125.73 34.23, 122.3 37.94, 115 36 M115 36 C89.75 36.18, 64.45 34.64, 9 36 M9 36 C4.68 36.24, 0.84 33, 0 27 M0 27 C0.47 22.25, -0.09 12.54, 0 9 M0 9 C-1.02 1.34, 3.53 -1.9, 9 0" stroke="#343a40" stroke-width="1.5" fill="none" stroke-dasharray="1.5 7"></path></g><g transform="translate(89.04821245598073 366.7760543698447) rotate(0 13.376029968261719 10)"><text x="13.376029968261719" y="0" font-family="Virgil, Segoe UI Emoji" font-size="16px" fill="#343a40" text-anchor="middle" style="white-space: pre;" direction="ltr" dominant-baseline="text-before-edge">[3]</text></g><g stroke-linecap="round"><g transform="translate(170.38260589984733 232.06672182168012) rotate(0 39.409793579895535 34.81816303976552)"><path d="M-0.62 -0.93 C19.05 16.65, 35.66 33.32, 79.06 69.44 M-0.03 0.73 C24.97 21.83, 49.19 43.41, 79.44 70.56" stroke="#343a40" stroke-width="0.5" fill="none"></path></g></g><mask></mask><g stroke-linecap="round"><g transform="translate(168.97805642633233 288.4279413144995) rotate(0 40.44537552434993 6.5731052523401985)"><path d="M0.14 -0.04 C17.39 4.77, 38.36 7.62, 81.33 13.19 M-0.44 0.41 C25.78 3.13, 51.23 6.58, 80.71 12.79" stroke="#343a40" stroke-width="0.5" fill="none"></path></g></g><mask></mask><g stroke-linecap="round"><g transform="translate(165.88192267502617 325.1832192156458) rotate(0 40.72429510935467 -10.73160057972872)"><path d="M1.71 1.03 C27.32 -7.83, 57.36 -15.26, 80.34 -20.52 M-0.3 -0.26 C23.14 -6.61, 44.39 -11.98, 81.75 -22.49" stroke="#343a40" stroke-width="0.5" fill="none"></path></g></g><mask></mask><g stroke-linecap="round"><g transform="translate(165.79414838035532 368.4295477092147) rotate(0 41.756245444909595 -33.64202981656928)"><path d="M-0.13 0.7 C32.77 -24.88, 63.34 -51.12, 83.51 -67.98 M-0.64 0.14 C32.05 -24.09, 61.98 -48.67, 84.15 -66.72" stroke="#343a40" stroke-width="0.5" fill="none"></path></g></g><mask></mask><g transform="translate(73.18326783758414 219.58071899414068) rotate(0 -0.7692307692307594 0.3846153846153584)" stroke="none"><path d="M-1.81 1.08 C-1.81 1.08, -1.81 1.08, -1.81 1.08 M-1.81 1.08 C-1.81 1.08, -1.81 1.08, -1.81 1.08" stroke="#ffc9c9" stroke-width="0.25" fill="none"></path><path fill="#343a40" d="M 0.62,-0.19 Q 0.62,-0.19 0.63,-0.03 0.64,0.11 0.58,0.26 0.51,0.40 0.39,0.50 0.26,0.59 0.11,0.62 -0.03,0.65 -0.18,0.60 -0.33,0.56 -0.45,0.45 -0.56,0.33 -0.60,0.18 -0.65,0.03 -0.62,-0.11 -0.59,-0.26 -0.50,-0.39 -0.40,-0.51 -0.26,-0.58 -0.11,-0.64 0.03,-0.63 0.19,-0.62 0.32,-0.54 0.46,-0.46 0.54,-0.32 L 0.62,-0.19 Z"></path></g><g transform="translate(33.18326783758418 155.7345651479868) rotate(0 34.568077087402344 10)"><text x="0" y="0" font-family="Virgil, Segoe UI Emoji" font-size="16px" fill="#343a40" text-anchor="start" style="white-space: pre;" direction="ltr" dominant-baseline="text-before-edge">subtitles</text></g><g stroke-linecap="round" transform="translate(260.0896050998634 267.42461124126834) rotate(0 75.86289350695156 33.26877721899537)"><path d="M4.43 3.85 C4.43 3.85, 4.43 3.85, 4.43 3.85 M4.43 3.85 C4.43 3.85, 4.43 3.85, 4.43 3.85 M1.54 13.27 C3.25 12, 4.5 9.49, 10.73 2.7 M1.54 13.27 C4.45 10.37, 8.46 6.17, 10.73 2.7 M1.28 19.66 C7.43 13.02, 12.11 3.48, 17.68 0.8 M1.28 19.66 C8.34 13.19, 12.62 5.71, 17.68 0.8 M1.02 26.06 C7.42 20.13, 11.45 13.39, 22.67 1.16 M1.02 26.06 C6.74 18.45, 14.05 12.13, 22.67 1.16 M1.41 31.7 C5.69 24.67, 12.37 14.99, 28.31 0.76 M1.41 31.7 C9.23 22.69, 16.32 15.25, 28.31 0.76 M1.15 38.1 C10.32 26.67, 21.53 13.13, 33.3 1.12 M1.15 38.1 C9.42 28.58, 20.23 16.83, 33.3 1.12 M1.55 43.75 C6.99 34, 14.78 26.35, 38.94 0.73 M1.55 43.75 C11.34 33.77, 20.19 21.27, 38.94 0.73 M1.29 50.14 C14.1 35.63, 26.74 18.76, 43.93 1.09 M1.29 50.14 C10.73 39.77, 19.33 29.83, 43.93 1.09 M2.34 55.03 C15.1 39.78, 26.6 28.27, 48.92 1.45 M2.34 55.03 C19.19 35.99, 34.29 17.49, 48.92 1.45 M2.73 60.67 C16.41 47.41, 28.47 30.85, 54.56 1.05 M2.73 60.67 C15.69 45.08, 29.5 30.19, 54.56 1.05 M5.75 63.3 C21.57 45.39, 35.1 28.9, 59.55 1.41 M5.75 63.3 C21.35 46.42, 34.34 29.73, 59.55 1.41 M9.42 65.17 C32.14 39.24, 51.96 13.85, 65.19 1.02 M9.42 65.17 C29.02 42.85, 48.48 21.68, 65.19 1.02 M12.44 67.79 C33.99 44.57, 54.28 22.81, 70.18 1.38 M12.44 67.79 C24.62 52.09, 37.16 38.1, 70.18 1.38 M17.43 68.15 C32.43 52.79, 45.68 36.29, 75.82 0.98 M17.43 68.15 C33.38 49.96, 51.04 30.66, 75.82 0.98 M23.07 67.76 C35.08 51.6, 51.67 37.28, 80.81 1.34 M23.07 67.76 C38.78 48.69, 54.42 31.66, 80.81 1.34 M28.06 68.12 C38.82 53.06, 51.64 38.47, 85.79 1.7 M28.06 68.12 C43.04 50.6, 59.8 31.57, 85.79 1.7 M33.05 68.48 C50.73 49.28, 69.25 27.33, 91.44 1.31 M33.05 68.48 C52.3 44.92, 73.72 22.6, 91.44 1.31 M38.69 68.08 C60.72 43.26, 83.23 18.89, 96.42 1.67 M38.69 68.08 C62.5 42.74, 85.24 15.71, 96.42 1.67 M43.68 68.44 C54.48 55.18, 69.44 40.38, 102.07 1.27 M43.68 68.44 C60.97 48.61, 78.42 28.71, 102.07 1.27 M49.32 68.05 C64.31 55.04, 76.4 39.69, 107.05 1.63 M49.32 68.05 C67.03 49.07, 83.24 28.38, 107.05 1.63 M54.31 68.41 C67.78 52.59, 84.66 34.1, 112.04 1.99 M54.31 68.41 C76.34 43.08, 97.39 17.73, 112.04 1.99 M59.29 68.77 C79.85 43.34, 104.87 18.6, 117.68 1.6 M59.29 68.77 C75.64 49.32, 93.42 30, 117.68 1.6 M64.94 68.37 C87.4 40.9, 108.35 15.25, 122.67 1.96 M64.94 68.37 C77.49 53.18, 88.85 40.9, 122.67 1.96 M69.92 68.73 C86.27 49.81, 102.79 26.42, 128.31 1.57 M69.92 68.73 C86.97 51.23, 102.45 31.32, 128.31 1.57 M75.57 68.34 C98.1 41.85, 116.92 19.69, 133.3 1.93 M75.57 68.34 C87.81 53.17, 99.08 40.1, 133.3 1.93 M80.55 68.7 C93.33 55.49, 106.16 39.69, 138.94 1.53 M80.55 68.7 C94.99 53.2, 107.83 37.5, 138.94 1.53 M86.2 68.31 C103.39 51.12, 117.91 30.32, 143.93 1.89 M86.2 68.31 C105.07 45.23, 126.02 23.83, 143.93 1.89 M91.18 68.67 C106.45 54.13, 120 39.73, 146.95 4.52 M91.18 68.67 C110.24 48.54, 127.4 27.48, 146.95 4.52 M96.17 69.03 C114.83 46.83, 135.9 21.9, 149.97 7.14 M96.17 69.03 C115.48 46.78, 135.19 24.46, 149.97 7.14 M101.81 68.63 C120.33 49.65, 138.14 27.05, 151.68 11.27 M101.81 68.63 C120.98 47.75, 138.59 26.29, 151.68 11.27 M106.8 68.99 C126.74 46.15, 141.97 24.64, 154.04 14.65 M106.8 68.99 C123.78 48.33, 143.53 27.49, 154.04 14.65 M112.45 68.6 C124.29 58.39, 131.59 46.49, 153.78 21.05 M112.45 68.6 C128.18 50.3, 143.38 32.37, 153.78 21.05 M117.43 68.96 C130.35 56.86, 139.47 42.15, 153.52 27.45 M117.43 68.96 C130.72 54.57, 142.6 39.46, 153.52 27.45 M123.08 68.56 C131.19 55.65, 141.35 46.03, 153.25 33.85 M123.08 68.56 C130.44 60.54, 136.44 52.56, 153.25 33.85 M128.06 68.92 C136.98 57.86, 147.81 47.22, 153.65 39.49 M128.06 68.92 C136.74 58.76, 143.14 50.67, 153.65 39.49 M135.02 67.02 C140.5 59.68, 146.62 53.81, 153.39 45.89 M135.02 67.02 C142.51 59.49, 150.31 49.98, 153.39 45.89 M141.97 65.11 C144.39 62.76, 148.45 59.08, 153.13 52.28 M141.97 65.11 C146.3 60.73, 150.69 56, 153.13 52.28" stroke="#ffc9c9" stroke-width="0.5" fill="none"></path><path d="M16.63 0 M16.63 0 C54.81 0.45, 91.34 -0.2, 135.09 0 M16.63 0 C63.58 -0.38, 110.6 0.2, 135.09 0 M135.09 0 C147.18 1.49, 153.15 7.31, 151.73 16.63 M135.09 0 C145.01 -1.47, 151.51 5.82, 151.73 16.63 M151.73 16.63 C151.09 24.65, 150.69 32.62, 151.73 49.9 M151.73 16.63 C151.74 25.28, 152.41 32.83, 151.73 49.9 M151.73 49.9 C152.88 61.13, 148 67.37, 135.09 66.54 M151.73 49.9 C153.16 60.46, 146.82 66.64, 135.09 66.54 M135.09 66.54 C108.55 65.53, 86.5 64.03, 16.63 66.54 M135.09 66.54 C95.38 67.85, 53.33 67.63, 16.63 66.54 M16.63 66.54 C5.45 66.92, -0.01 62.83, 0 49.9 M16.63 66.54 C6.74 65.45, 0.83 60.07, 0 49.9 M0 49.9 C1.26 38.16, 0.61 25.93, 0 16.63 M0 49.9 C-0.66 37.86, 0.2 24.85, 0 16.63 M0 16.63 C1.73 4.4, 4.24 0.82, 16.63 0 M0 16.63 C-1.62 6.08, 4.62 2.07, 16.63 0" stroke="#1e1e1e" stroke-width="1" fill="none"></path></g><g transform="translate(269.93213874700194 252.8146569244065) rotate(0 9.896781921386719 6.30090477632487)"><text x="0" y="0" font-family="Virgil, Segoe UI Emoji" font-size="10.081447642119807px" fill="#1e1e1e" text-anchor="start" style="white-space: pre;" direction="ltr" dominant-baseline="text-before-edge">LLM</text></g><g transform="translate(291.71574770049295 294.7222807330887) rotate(0 44.84291076660156 6.300904776324884)"><text x="0" y="0" font-family="Virgil, Segoe UI Emoji" font-size="10.081447642119812px" fill="#1e1e1e" text-anchor="start" style="white-space: pre;" direction="ltr" dominant-baseline="text-before-edge">Limited N Tockens</text></g><g stroke-linecap="round" transform="translate(482.63869463869486 206.8180124118026) rotate(0 62 18)"><path d="M9.54 -1.21 L119.69 0.81 L123.7 5.98 L123.93 29.97 L120.08 31.84 L115.14 37.84 L6.9 34.61 L-0.44 30 L-1.15 8.54 L0.62 0.85 L9.37 -0.87" stroke="none" stroke-width="0" fill="#a5d8ff"></path><path d="M9 0 M9 0 C38.6 2.49, 67.32 0.76, 115 0 M115 0 C119.29 -0.02, 123.1 3.82, 124 9 M124 9 C123.99 11.71, 125.62 15.82, 124 27 M124 27 C125.41 32.73, 122.59 36.03, 115 36 M115 36 C86.05 33.94, 52.83 35.1, 9 36 M9 36 C3.14 37.76, 1.45 33.98, 0 27 M0 27 C-0.43 21.92, 0.03 16.7, 0 9 M0 9 C-1.34 4.96, 4.88 -1.92, 9 0" stroke="#343a40" stroke-width="1.5" fill="none" stroke-dasharray="1.5 7"></path></g><g transform="translate(531.2066649145738 214.8180124118026) rotate(0 13.432029724121094 10)"><text x="13.432029724121094" y="0" font-family="Virgil, Segoe UI Emoji" font-size="16px" fill="#343a40" text-anchor="middle" style="white-space: pre;" direction="ltr" dominant-baseline="text-before-edge">[0]</text></g><g stroke-linecap="round" transform="translate(482.47552447552465 258.44971404350423) rotate(0 62 18)"><path d="M7.11 1.92 L120.79 -0.13 L125.05 5.98 L122.31 29.56 L121.68 32.01 L113.77 35.76 L3.12 34.58 L0.61 31.57 L-0.49 7.72 L0.97 0.41 L9.34 0.12" stroke="none" stroke-width="0" fill="#a5d8ff"></path><path d="M9 0 M9 0 C32.61 0.54, 56.87 -0.59, 115 0 M115 0 C121.82 0.46, 122.12 4.46, 124 9 M124 9 C124.91 16.08, 125.45 19.04, 124 27 M124 27 C125.81 31.14, 119.95 37.26, 115 36 M115 36 C76.72 36.4, 36.71 36.22, 9 36 M9 36 C4.14 37.1, -0.94 32.08, 0 27 M0 27 C0.34 22.09, -0.06 16.63, 0 9 M0 9 C0.48 3.31, 1.82 -0.57, 9 0" stroke="#343a40" stroke-width="1.5" fill="none" stroke-dasharray="1.5 7"></path></g><g transform="translate(534.3795009159544 266.44971404350423) rotate(0 10.096023559570312 10)"><text x="10.096023559570312" y="0" font-family="Virgil, Segoe UI Emoji" font-size="16px" fill="#343a40" text-anchor="middle" style="white-space: pre;" direction="ltr" dominant-baseline="text-before-edge">[1]</text></g><g stroke-linecap="round" transform="translate(482.17249417249417 304.5103201041103) rotate(0 62 18)"><path d="M8.87 -1.8 L117.6 0.22 L123.19 5.74 L124.48 30.58 L122.39 33.21 L113.88 34.52 L3.5 35.04 L-1.11 31.78 L-1.99 9.67 L1.71 2.97 L8.2 -1.22" stroke="none" stroke-width="0" fill="#a5d8ff"></path><path d="M9 0 M9 0 C32.76 1.73, 56.5 1.25, 115 0 M115 0 C122.22 1.64, 123.5 4.36, 124 9 M124 9 C124.67 11.54, 124.05 16.68, 124 27 M124 27 C123.46 34.95, 120.79 34.55, 115 36 M115 36 C77.53 35.01, 38.52 36.3, 9 36 M9 36 C2.81 34.92, 1.51 32.61, 0 27 M0 27 C-1.27 22.79, -1.19 19.85, 0 9 M0 9 C-1.86 1.71, 4.81 -0.4, 9 0" stroke="#343a40" stroke-width="1.5" fill="none" stroke-dasharray="1.5 7"></path></g><g transform="translate(530.5484631055997 312.5103201041103) rotate(0 13.624031066894531 10)"><text x="13.624031066894531" y="0" font-family="Virgil, Segoe UI Emoji" font-size="16px" fill="#343a40" text-anchor="middle" style="white-space: pre;" direction="ltr" dominant-baseline="text-before-edge">[2]</text></g><g stroke-linecap="round" transform="translate(485.8088578088579 357.23759283138315) rotate(0 62 18)"><path d="M7.67 -0.35 L118.69 1.24 L124.48 4.7 L124.07 30.4 L120.63 32.27 L113.44 35.6 L3.39 36.28 L-1.43 31.61 L-0.54 9.72 L1.45 1.03 L7.37 -0.24" stroke="none" stroke-width="0" fill="#a5d8ff"></path><path d="M9 0 M9 0 C35.63 0.04, 61.24 1.06, 115 0 M115 0 C120.5 1.36, 122.42 2.98, 124 9 M124 9 C124.12 13.33, 123.59 19.96, 124 27 M124 27 C123.79 31.55, 122.16 34.34, 115 36 M115 36 C76.95 34.91, 39.9 34.1, 9 36 M9 36 C4.51 35.61, -1.57 32.12, 0 27 M0 27 C-1.13 22.84, -1.54 15.87, 0 9 M0 9 C1.81 2.6, 1.27 -0.23, 9 0" stroke="#343a40" stroke-width="1.5" fill="none" stroke-dasharray="1.5 7"></path></g><g transform="translate(534.4328278405962 365.23759283138315) rotate(0 13.376029968261719 10)"><text x="13.376029968261719" y="0" font-family="Virgil, Segoe UI Emoji" font-size="16px" fill="#343a40" text-anchor="middle" style="white-space: pre;" direction="ltr" dominant-baseline="text-before-edge">[3]</text></g><g stroke-linecap="round"><g transform="translate(423.64480629912265 298.43512747856585) rotate(0 27.673425599717802 -34.40922923881621)"><path d="M-0.48 -1.39 C20.03 -27.43, 42.74 -52.08, 54.98 -68.35 M-0.76 0.29 C18.46 -21.93, 37.55 -45.33, 56.11 -69.11" stroke="#343a40" stroke-width="0.5" fill="none"></path></g></g><mask></mask><g stroke-linecap="round"><g transform="translate(425.9524986068149 297.0508568882647) rotate(0 25.746276298609587 -10.805652966735778)"><path d="M-0.42 -0.57 C14.68 -8.09, 31.79 -14.21, 50.57 -21.04 M-0.95 -0.82 C16.94 -6.71, 34 -13.09, 52.44 -19.8" stroke="#343a40" stroke-width="0.5" fill="none"></path></g></g><mask></mask><g stroke-linecap="round"><g transform="translate(426.72172937604563 296.2553195138213) rotate(0 24.18104798103184 11.241902579003678)"><path d="M-0.73 -0.27 C11 3.55, 24.57 10.84, 49.1 21.99 M0.13 -0.36 C11.55 6.27, 25.73 11.59, 46.37 22.85" stroke="#343a40" stroke-width="0.5" fill="none"></path></g></g><mask></mask><g stroke-linecap="round"><g transform="translate(427.81539211376645 294.0816016070173) rotate(0 25.188017355531258 40.23851601389916)"><path d="M-1.61 0.32 C10.43 19.62, 22 38.12, 51.99 80.25 M-0.21 0.23 C13.67 18.75, 25.55 38.9, 51.95 79.97" stroke="#343a40" stroke-width="0.5" fill="none"></path></g></g><mask></mask><g transform="translate(111.74096014527657 535.901231814653) rotate(0 104.4322280883789 20)"><text x="0" y="0" font-family="Virgil, Segoe UI Emoji" font-size="16px" fill="#343a40" text-anchor="start" style="white-space: pre;" direction="ltr" dominant-baseline="text-before-edge">Subtitles divided based to</text><text x="0" y="20" font-family="Virgil, Segoe UI Emoji" font-size="16px" fill="#343a40" text-anchor="start" style="white-space: pre;" direction="ltr" dominant-baseline="text-before-edge">a n-length chunks</text></g><g transform="translate(407.0294216837382 541.3820010454217) rotate(0 121.03224182128909 10)"><text x="0" y="0" font-family="Virgil, Segoe UI Emoji" font-size="16px" fill="#fa5252" text-anchor="start" style="white-space: pre;" direction="ltr" dominant-baseline="text-before-edge">- no context of previous chunk</text></g><g stroke-linecap="round" transform="translate(727.0294216837383 112.65764207106389) rotate(0 95.38461538461536 41.53846153846149)"><path d="M3.06 7.96 C3.06 7.96, 3.06 7.96, 3.06 7.96 M3.06 7.96 C3.06 7.96, 3.06 7.96, 3.06 7.96 M1.29 13.04 C2.69 10.29, 5.42 7.05, 9.16 3.99 M1.29 13.04 C3.76 9.67, 6.65 7.56, 9.16 3.99 M0.83 16.62 C4.13 13.73, 4.82 9.81, 12.64 3.03 M0.83 16.62 C5.28 11.31, 9.01 6.09, 12.64 3.03 M1.02 19.44 C7.63 14.22, 10.85 6.06, 16.11 2.08 M1.02 19.44 C7.5 12.39, 13.18 7.39, 16.11 2.08 M1.22 22.26 C6.28 14.22, 10.61 10.78, 18.93 1.88 M1.22 22.26 C8.34 15.69, 13.37 8.56, 18.93 1.88 M0.76 25.84 C9.37 16.12, 14.58 9.43, 22.41 0.93 M0.76 25.84 C8.66 16.69, 17.22 6.91, 22.41 0.93 M0.96 28.66 C5.44 24.38, 10.81 18.55, 24.58 1.49 M0.96 28.66 C6.65 21.11, 11.23 15.17, 24.58 1.49 M1.16 31.48 C8.47 21.36, 16.4 11.44, 27.4 1.29 M1.16 31.48 C10.35 21.32, 18.66 10.9, 27.4 1.29 M0.7 35.06 C9.38 26.84, 19.09 16.8, 30.22 1.1 M0.7 35.06 C11.82 22.85, 23.99 9.86, 30.22 1.1 M0.9 37.88 C9.16 26.32, 17.84 19.22, 33.04 0.9 M0.9 37.88 C12.68 25.19, 25.39 9.95, 33.04 0.9 M1.09 40.7 C9.31 34.09, 15.3 26.71, 35.21 1.46 M1.09 40.7 C12.81 28.2, 23.49 14.68, 35.21 1.46 M1.29 43.52 C10.16 33.58, 19.27 21.82, 38.03 1.26 M1.29 43.52 C9.11 33.81, 18.06 23.33, 38.03 1.26 M0.83 47.1 C18 31.18, 31.67 12.08, 40.85 1.06 M0.83 47.1 C14.29 32.06, 28.38 15.27, 40.85 1.06 M1.03 49.92 C11.5 35.72, 26.62 22.19, 43.67 0.86 M1.03 49.92 C10.15 39.16, 18.64 30, 43.67 0.86 M1.23 52.74 C11.12 42.93, 21.03 32.59, 45.84 1.42 M1.23 52.74 C11.99 39.69, 23.33 26.83, 45.84 1.42 M0.77 56.32 C16.16 37.91, 28.96 19.76, 48.66 1.22 M0.77 56.32 C14.54 38.47, 29.18 21.49, 48.66 1.22 M0.96 59.14 C15.81 42.52, 28.95 27.17, 51.48 1.03 M0.96 59.14 C11.92 45.88, 22.25 33.12, 51.48 1.03 M1.16 61.96 C13.97 46.56, 27.73 30.23, 53.65 1.58 M1.16 61.96 C21.92 38.75, 42.63 14.21, 53.65 1.58 M0.7 65.54 C13.44 49.19, 27.71 35.03, 56.47 1.39 M0.7 65.54 C21.34 40.29, 43.58 15.21, 56.47 1.39 M1.56 67.6 C15.41 52.54, 33.84 31.18, 59.29 1.19 M1.56 67.6 C17.36 49.01, 31.6 31.12, 59.29 1.19 M1.75 70.43 C23.71 44.31, 46.49 17.9, 62.11 0.99 M1.75 70.43 C14.26 56.98, 26.83 42.15, 62.11 0.99 M2.61 72.49 C14.33 56.64, 27.46 42.41, 64.28 1.55 M2.61 72.49 C28.05 44.68, 51.98 17.13, 64.28 1.55 M2.8 75.31 C27.79 47.88, 49.96 23.35, 67.1 1.35 M2.8 75.31 C22.91 53.18, 40.72 31, 67.1 1.35 M4.31 76.63 C30.25 48.48, 54.13 16.94, 69.92 1.15 M4.31 76.63 C29.81 49.89, 54.55 20.66, 69.92 1.15 M6.48 77.18 C28.48 52.54, 52.17 23.86, 72.74 0.96 M6.48 77.18 C21.74 59.36, 36.84 41.24, 72.74 0.96 M7.99 78.5 C22.44 61.91, 39.19 44.49, 74.91 1.51 M7.99 78.5 C25.91 59.48, 42.79 38.02, 74.91 1.51 M9.5 79.81 C28.06 59.41, 47.42 37.44, 77.73 1.32 M9.5 79.81 C32.71 53.09, 56.38 27.64, 77.73 1.32 M11.01 81.12 C37.69 51.65, 62.4 20.4, 80.55 1.12 M11.01 81.12 C27.94 61.87, 45.48 42.08, 80.55 1.12 M12.52 82.43 C35.3 59.31, 55.78 33.73, 83.37 0.92 M12.52 82.43 C28.84 62.94, 46.35 42.31, 83.37 0.92 M14.68 82.99 C28.88 64.45, 43.3 47.55, 85.54 1.48 M14.68 82.99 C43.19 51.34, 71.31 17.09, 85.54 1.48 M17.5 82.79 C35.06 63.57, 52.35 40.55, 88.36 1.28 M17.5 82.79 C31.74 65.9, 45.24 48.94, 88.36 1.28 M19.67 83.35 C43.68 55.87, 66.86 26.03, 91.18 1.09 M19.67 83.35 C42.55 57.31, 64.38 33.38, 91.18 1.09 M21.84 83.91 C44.91 54.13, 73.29 26.57, 94 0.89 M21.84 83.91 C45.34 54.95, 71.08 26.65, 94 0.89 M24.66 83.71 C46.34 58.77, 68.01 35.31, 96.17 1.45 M24.66 83.71 C39.42 66.51, 54.39 48.63, 96.17 1.45 M26.82 84.27 C44.03 63.76, 63.01 43.7, 98.99 1.25 M26.82 84.27 C55.27 50.99, 82.5 18.19, 98.99 1.25 M29.64 84.07 C47.2 66.59, 61.49 46.9, 101.81 1.05 M29.64 84.07 C53.68 57.99, 78.11 30.7, 101.81 1.05 M32.47 83.87 C51.5 63.45, 68.52 43.83, 104.63 0.85 M32.47 83.87 C60.44 52.56, 87.17 18.8, 104.63 0.85 M35.29 83.67 C49.71 66.54, 66.2 48, 106.8 1.41 M35.29 83.67 C54.44 60.01, 74.47 37.86, 106.8 1.41 M37.45 84.23 C51.07 66.17, 67.65 47.37, 109.62 1.21 M37.45 84.23 C62.84 55.37, 88.99 25.84, 109.62 1.21 M40.27 84.03 C68.72 50.21, 96.48 21.67, 112.44 1.02 M40.27 84.03 C59.34 61.14, 79.12 38.32, 112.44 1.02 M43.1 83.84 C67.59 55.62, 92.02 25.77, 114.61 1.57 M43.1 83.84 C59.59 63.59, 76.96 44.28, 114.61 1.57 M45.92 83.64 C71.07 52.34, 96.18 25.94, 117.43 1.38 M45.92 83.64 C70.98 56.54, 93.76 27.7, 117.43 1.38 M48.08 84.2 C72.84 54.68, 99.58 22.76, 120.25 1.18 M48.08 84.2 C74.02 55.06, 99.2 25.37, 120.25 1.18 M50.9 84 C66.9 65.38, 81.79 46.33, 123.07 0.98 M50.9 84 C71.69 60.99, 90.77 38.76, 123.07 0.98 M53.73 83.8 C71.11 64.27, 92.16 41.9, 125.24 1.54 M53.73 83.8 C77.57 57.29, 99.66 30.2, 125.24 1.54 M56.55 83.61 C79.32 56.54, 105.49 29.13, 128.06 1.34 M56.55 83.61 C79.09 59, 100.01 33.21, 128.06 1.34 M58.71 84.16 C76.22 60.1, 96.52 40.08, 130.88 1.15 M58.71 84.16 C87.2 51.84, 113.98 20.95, 130.88 1.15 M61.53 83.97 C86.35 58.01, 109.45 30.66, 133.7 0.95 M61.53 83.97 C79.82 64.94, 96.93 44.67, 133.7 0.95 M64.36 83.77 C80.01 65.87, 93.64 49.61, 135.87 1.51 M64.36 83.77 C80.69 62.75, 100.28 42.31, 135.87 1.51 M66.52 84.33 C93.69 54.05, 116.92 24.43, 138.69 1.31 M66.52 84.33 C88.17 61.27, 107.06 37.78, 138.69 1.31 M69.34 84.13 C94.64 53.04, 122.28 24.88, 141.51 1.11 M69.34 84.13 C86.61 63.2, 103.74 43.16, 141.51 1.11 M72.16 83.93 C99.64 52.7, 125.13 24.09, 144.33 0.91 M72.16 83.93 C89.16 65.23, 106.41 45, 144.33 0.91 M74.99 83.73 C93.93 63.41, 106.48 47.01, 146.5 1.47 M74.99 83.73 C101.33 50.96, 129.55 20.19, 146.5 1.47 M77.15 84.29 C99.53 62.94, 119.83 37.58, 149.32 1.27 M77.15 84.29 C102.05 56.08, 124.86 28.32, 149.32 1.27 M79.97 84.09 C101.32 56.8, 124.52 31.73, 152.14 1.08 M79.97 84.09 C100 58.28, 121.93 34.5, 152.14 1.08 M82.79 83.9 C111.07 51.11, 140.91 17.8, 154.96 0.88 M82.79 83.9 C109.02 55.82, 134.14 26.47, 154.96 0.88 M85.62 83.7 C114.02 50.15, 143.97 20.44, 157.13 1.44 M85.62 83.7 C104.94 59.54, 126.27 35.95, 157.13 1.44 M87.78 84.26 C115.89 51.89, 140.59 20.91, 159.95 1.24 M87.78 84.26 C110.28 57.83, 131.42 33.42, 159.95 1.24 M90.6 84.06 C107.86 67.71, 119.95 48.94, 162.77 1.04 M90.6 84.06 C111.72 60.02, 131.5 39.15, 162.77 1.04 M93.42 83.86 C114.68 57.7, 137.95 32.35, 165.59 0.84 M93.42 83.86 C121.22 49.56, 149.28 17.4, 165.59 0.84 M96.25 83.67 C123.95 51.94, 155.15 19.68, 167.76 1.4 M96.25 83.67 C114.42 61.45, 134.11 39.25, 167.76 1.4 M98.41 84.22 C125.04 55.73, 151.32 24.59, 171.23 0.45 M98.41 84.22 C115.69 66.74, 132.6 47.02, 171.23 0.45 M101.23 84.03 C124.82 53.18, 152.49 25.21, 173.4 1.01 M101.23 84.03 C121.91 58.73, 144.24 35.53, 173.4 1.01 M104.05 83.83 C117.68 68.22, 130.69 49.01, 175.56 1.56 M104.05 83.83 C130.96 53.02, 158.78 21.57, 175.56 1.56 M106.88 83.63 C133.96 53.43, 157.78 22.6, 177.73 2.12 M106.88 83.63 C123.8 63.29, 141.34 42.55, 177.73 2.12 M109.04 84.19 C136.43 53.9, 160.77 25.53, 180.55 1.92 M109.04 84.19 C129.68 61.29, 148.69 37.7, 180.55 1.92 M111.86 83.99 C130.27 61.6, 153.08 39.23, 182.06 3.24 M111.86 83.99 C130.97 63.89, 147.49 44.47, 182.06 3.24 M114.68 83.79 C129.52 67.42, 145.42 48.24, 183.57 4.55 M114.68 83.79 C134.78 60.39, 155.14 36.42, 183.57 4.55 M117.51 83.6 C134.6 66.02, 149.55 48.05, 185.74 5.11 M117.51 83.6 C137.34 59.85, 158.63 36.48, 185.74 5.11 M119.67 84.15 C141.99 60.25, 160.32 36.69, 186.59 7.17 M119.67 84.15 C134.77 65.7, 150.81 46.6, 186.59 7.17 M122.49 83.96 C143.39 56.71, 165.04 32.84, 187.44 9.24 M122.49 83.96 C148.65 52.87, 174.06 24.61, 187.44 9.24 M125.31 83.76 C148.82 60.11, 167.94 34.28, 188.3 11.31 M125.31 83.76 C142.53 63.83, 160.54 43.18, 188.3 11.31 M127.48 84.32 C150.73 57.46, 174.74 30.68, 189.15 13.37 M127.48 84.32 C143.81 66.44, 159.42 46.3, 189.15 13.37 M130.3 84.12 C140.03 70.19, 155.19 56.61, 190 15.44 M130.3 84.12 C144.27 65.83, 160.11 49.19, 190 15.44 M133.12 83.92 C151.75 59.51, 172.63 38.49, 191.51 16.75 M133.12 83.92 C155.19 58.25, 177.45 31.93, 191.51 16.75 M135.94 83.72 C155.62 59.93, 175.9 39.18, 191.71 19.57 M135.94 83.72 C152.9 64.99, 168.62 46.18, 191.71 19.57 M138.11 84.28 C151.1 71.94, 159.5 57.01, 191.25 23.15 M138.11 84.28 C157.24 61.69, 177.52 39.68, 191.25 23.15 M140.93 84.08 C153.69 68.97, 164.11 59.06, 191.45 25.97 M140.93 84.08 C152.85 69.41, 165.64 56.58, 191.45 25.97 M143.75 83.89 C153.55 70.46, 166.57 57.95, 191.65 28.79 M143.75 83.89 C154.5 71.12, 164.47 59.08, 191.65 28.79 M146.57 83.69 C157.35 70.16, 170.51 58.05, 191.84 31.62 M146.57 83.69 C157.54 70.97, 167.3 60.06, 191.84 31.62 M148.74 84.25 C162.46 68.36, 177.57 51.52, 191.38 35.19 M148.74 84.25 C159.41 73.96, 168.81 63.12, 191.38 35.19 M151.56 84.05 C162.36 72.47, 170.95 63.05, 191.58 38.01 M151.56 84.05 C162.76 69.82, 173.85 58.21, 191.58 38.01 M154.38 83.85 C166.94 68.11, 180.37 54.54, 191.78 40.83 M154.38 83.85 C164.3 72.06, 175.15 58.2, 191.78 40.83 M157.2 83.66 C167.82 70.8, 177.35 59.19, 191.98 43.66 M157.2 83.66 C169.67 68.45, 182.41 53.87, 191.98 43.66 M159.37 84.21 C172.62 71.16, 184 56.39, 191.52 47.23 M159.37 84.21 C172.15 69.85, 185.59 53.66, 191.52 47.23 M162.19 84.02 C168.22 75.94, 175.93 67.34, 191.71 50.05 M162.19 84.02 C169.99 75.04, 178.56 66.11, 191.71 50.05 M165.01 83.82 C169.43 77.82, 176.35 68.96, 191.91 52.88 M165.01 83.82 C174.26 71.82, 184.77 61.5, 191.91 52.88 M167.83 83.62 C176.13 73.8, 184.82 66.47, 191.45 56.45 M167.83 83.62 C177.52 72.98, 184.59 64.05, 191.45 56.45 M170.66 83.42 C175.39 75.99, 182.7 71.34, 191.65 59.27 M170.66 83.42 C175.32 78.27, 180.81 71.81, 191.65 59.27 M174.13 82.47 C179.79 76.13, 186.97 71.25, 191.19 62.85 M174.13 82.47 C178.2 77.93, 183.18 72.01, 191.19 62.85 M176.96 82.27 C181.97 77.94, 184.28 75.32, 190.73 66.43 M176.96 82.27 C181.55 76.85, 187.91 71.32, 190.73 66.43 M180.43 81.32 C183.65 78.5, 187.14 76.13, 190.27 70 M180.43 81.32 C182.89 77.83, 185.51 74.43, 190.27 70" stroke="#ffec99" stroke-width="0.25" fill="none"></path><path d="M20.77 0 M20.77 0 C52.23 1.21, 86 1.14, 170 0 M20.77 0 C64.89 0.96, 110.12 1.6, 170 0 M170 0 C182.31 0.97, 188.84 5.43, 190.77 20.77 M170 0 C184.23 -0.92, 189.85 5.23, 190.77 20.77 M190.77 20.77 C192.68 28.64, 190.04 39.27, 190.77 62.31 M190.77 20.77 C190.79 34.85, 190.79 46.58, 190.77 62.31 M190.77 62.31 C189.97 76.35, 182.47 82.18, 170 83.08 M190.77 62.31 C190.95 76.81, 181.95 80.86, 170 83.08 M170 83.08 C137.66 79.99, 106.8 82.77, 20.77 83.08 M170 83.08 C123.77 82.8, 77.64 81.83, 20.77 83.08 M20.77 83.08 C7.05 82.5, -1.32 75.63, 0 62.31 M20.77 83.08 C7.77 82.02, -1.25 75.28, 0 62.31 M0 62.31 C1.05 51.67, -0.13 43.57, 0 20.77 M0 62.31 C-0.92 48.63, 0.63 36.61, 0 20.77 M0 20.77 C-1.7 7.61, 8.78 -1.06, 20.77 0 M0 20.77 C-2.22 5.18, 8.16 -0.64, 20.77 0" stroke="#fa5252" stroke-width="0.5" fill="none"></path></g><g stroke-linecap="round" transform="translate(730.8755755298923 211.88841130183312) rotate(0 95.38461538461536 41.53846153846149)"><path d="M3.06 7.96 C3.06 7.96, 3.06 7.96, 3.06 7.96 M3.06 7.96 C3.06 7.96, 3.06 7.96, 3.06 7.96 M1.29 13.04 C4.43 8.75, 7.08 6.76, 9.16 3.99 M1.29 13.04 C3.74 10.07, 7.46 5.69, 9.16 3.99 M0.83 16.62 C4.92 10.92, 7.99 8.01, 12.64 3.03 M0.83 16.62 C3.98 12.17, 7.22 9.12, 12.64 3.03 M1.02 19.44 C6.09 13.35, 8.2 12.52, 16.11 2.08 M1.02 19.44 C5.03 14.96, 11.09 8.64, 16.11 2.08 M1.22 22.26 C6.34 13.13, 16.06 6.99, 18.93 1.88 M1.22 22.26 C5.54 17.37, 9.32 13.89, 18.93 1.88 M0.76 25.84 C8.16 15.05, 18.54 7.68, 22.41 0.93 M0.76 25.84 C5.39 20.83, 9.35 15.01, 22.41 0.93 M0.96 28.66 C8.76 21.25, 15.03 12.77, 24.58 1.49 M0.96 28.66 C7.68 18.71, 16.04 10.71, 24.58 1.49 M1.16 31.48 C5.54 24.53, 10.14 20.08, 27.4 1.29 M1.16 31.48 C11.22 19.58, 21.05 9.13, 27.4 1.29 M0.7 35.06 C8.16 29.64, 13.76 22.03, 30.22 1.1 M0.7 35.06 C10.67 25.25, 19.87 13.62, 30.22 1.1 M0.9 37.88 C10.91 24.55, 25.37 11.94, 33.04 0.9 M0.9 37.88 C9.25 30.05, 15.04 19.78, 33.04 0.9 M1.09 40.7 C13.69 28.02, 25.47 15.55, 35.21 1.46 M1.09 40.7 C15.01 25.16, 27.89 9.5, 35.21 1.46 M1.29 43.52 C15.78 27.03, 28.46 12.4, 38.03 1.26 M1.29 43.52 C10.98 32.4, 19.9 22.41, 38.03 1.26 M0.83 47.1 C12.81 34.76, 21.58 25.14, 40.85 1.06 M0.83 47.1 C12.72 34.53, 22.8 21.23, 40.85 1.06 M1.03 49.92 C15.66 34.5, 30.98 14.81, 43.67 0.86 M1.03 49.92 C10.82 37.6, 22.26 24.78, 43.67 0.86 M1.23 52.74 C13.48 40.66, 25.24 24.72, 45.84 1.42 M1.23 52.74 C13.09 38.63, 25.2 25.56, 45.84 1.42 M0.77 56.32 C14.53 37.29, 28.59 21.85, 48.66 1.22 M0.77 56.32 C18.54 34.44, 37.25 13.08, 48.66 1.22 M0.96 59.14 C11.54 45.85, 23.34 32.04, 51.48 1.03 M0.96 59.14 C16.56 39.77, 32.72 21.63, 51.48 1.03 M1.16 61.96 C19.12 41.49, 36.09 22.71, 53.65 1.58 M1.16 61.96 C14.27 47.4, 26.1 32.09, 53.65 1.58 M0.7 65.54 C10.57 53.07, 22.7 41.8, 56.47 1.39 M0.7 65.54 C21.09 42, 41.67 17.7, 56.47 1.39 M1.56 67.6 C21.42 49.89, 34.9 27.4, 59.29 1.19 M1.56 67.6 C21.78 42.52, 42.7 19.56, 59.29 1.19 M1.75 70.43 C16.37 53.08, 30.61 34.63, 62.11 0.99 M1.75 70.43 C17.11 53.74, 31.11 35.36, 62.11 0.99 M2.61 72.49 C24.06 46.4, 47.14 22.73, 64.28 1.55 M2.61 72.49 C18.05 54.84, 33.74 37.2, 64.28 1.55 M2.8 75.31 C17.29 57.7, 34.64 39.92, 67.1 1.35 M2.8 75.31 C24.59 49.25, 46.31 26.22, 67.1 1.35 M4.31 76.63 C25.46 52.34, 43.25 31.73, 69.92 1.15 M4.31 76.63 C19.95 60.73, 33.05 43.76, 69.92 1.15 M6.48 77.18 C22.23 60.74, 33.89 44.79, 72.74 0.96 M6.48 77.18 C26.98 53.25, 47.1 29.8, 72.74 0.96 M7.99 78.5 C34.99 49.91, 61.24 17.29, 74.91 1.51 M7.99 78.5 C29.84 54.15, 49.29 28.5, 74.91 1.51 M9.5 79.81 C26.09 62.64, 41.02 42.77, 77.73 1.32 M9.5 79.81 C23.7 63.76, 39.1 47.57, 77.73 1.32 M11.01 81.12 C31.8 56.72, 50.87 33.25, 80.55 1.12 M11.01 81.12 C26.99 63.53, 42.33 46.52, 80.55 1.12 M12.52 82.43 C39.69 53.19, 64.42 21.47, 83.37 0.92 M12.52 82.43 C39.55 51.96, 65.39 21.17, 83.37 0.92 M14.68 82.99 C39.75 51.93, 66.47 24.45, 85.54 1.48 M14.68 82.99 C38.54 56.51, 59.81 29.09, 85.54 1.48 M17.5 82.79 C36.48 61.59, 51.67 39.24, 88.36 1.28 M17.5 82.79 C37.49 58.4, 57.45 36.14, 88.36 1.28 M19.67 83.35 C48.61 49.82, 75.18 17.94, 91.18 1.09 M19.67 83.35 C37.25 62.2, 57 40.85, 91.18 1.09 M21.84 83.91 C46.1 57.08, 72.58 28.21, 94 0.89 M21.84 83.91 C45.27 57.05, 69.42 28, 94 0.89 M24.66 83.71 C40.15 65.7, 57.2 43.85, 96.17 1.45 M24.66 83.71 C52.03 52.36, 78.74 21.97, 96.17 1.45 M26.82 84.27 C48.95 59.64, 71.45 35.81, 98.99 1.25 M26.82 84.27 C45.4 60.85, 64.55 37.86, 98.99 1.25 M29.64 84.07 C54.92 55.6, 77.93 28.07, 101.81 1.05 M29.64 84.07 C48.83 64.17, 66.72 42.51, 101.81 1.05 M32.47 83.87 C58.23 54.66, 84.79 25.37, 104.63 0.85 M32.47 83.87 C56.53 55.97, 78.17 28.79, 104.63 0.85 M35.29 83.67 C55.44 61.51, 74.16 38.9, 106.8 1.41 M35.29 83.67 C62.67 51.4, 91.58 19.38, 106.8 1.41 M37.45 84.23 C65.55 51.76, 92.86 23.04, 109.62 1.21 M37.45 84.23 C60.01 59.53, 81.84 35.89, 109.62 1.21 M40.27 84.03 C67.03 52, 99.13 16.74, 112.44 1.02 M40.27 84.03 C63.65 56.82, 87.11 30.68, 112.44 1.02 M43.1 83.84 C71.61 51.28, 98.43 18.64, 114.61 1.57 M43.1 83.84 C62.33 61, 82.57 39.39, 114.61 1.57 M45.92 83.64 C71.02 52.13, 101.03 23.38, 117.43 1.38 M45.92 83.64 C69.95 55.84, 92.15 30.65, 117.43 1.38 M48.08 84.2 C66.72 62.9, 82.97 43.72, 120.25 1.18 M48.08 84.2 C71.59 57.28, 94.51 29.55, 120.25 1.18 M50.9 84 C68.03 62.77, 84.75 42.43, 123.07 0.98 M50.9 84 C69.25 62.03, 88.42 40.04, 123.07 0.98 M53.73 83.8 C84.21 53.01, 111.77 20.12, 125.24 1.54 M53.73 83.8 C80.44 52.5, 106.59 23.12, 125.24 1.54 M56.55 83.61 C84.14 54.43, 111.3 21.51, 128.06 1.34 M56.55 83.61 C82.57 53.75, 107.35 24.77, 128.06 1.34 M58.71 84.16 C75.68 62.27, 96.78 41.54, 130.88 1.15 M58.71 84.16 C82.09 56.19, 106.83 29.78, 130.88 1.15 M61.53 83.97 C86.34 57.08, 109.74 29, 133.7 0.95 M61.53 83.97 C78.96 64.77, 95.21 43.28, 133.7 0.95 M64.36 83.77 C85.41 57.94, 108.04 32.86, 135.87 1.51 M64.36 83.77 C91.89 53.12, 119.95 21.12, 135.87 1.51 M66.52 84.33 C89.12 56.22, 112.28 29.82, 138.69 1.31 M66.52 84.33 C87.18 59.85, 107.39 37.99, 138.69 1.31 M69.34 84.13 C93.27 56.6, 120.23 24.97, 141.51 1.11 M69.34 84.13 C91.89 56.9, 115.33 31.99, 141.51 1.11 M72.16 83.93 C88.75 63.18, 107.92 43.88, 144.33 0.91 M72.16 83.93 C93.09 61.17, 112.38 38.8, 144.33 0.91 M74.99 83.73 C89.67 62.59, 108.26 47.64, 146.5 1.47 M74.99 83.73 C99.92 54.19, 126.95 24.49, 146.5 1.47 M77.15 84.29 C93.68 68.49, 106.15 50.87, 149.32 1.27 M77.15 84.29 C100.58 55.71, 124.52 29.06, 149.32 1.27 M79.97 84.09 C106.81 51.83, 135.96 19.79, 152.14 1.08 M79.97 84.09 C102.81 56.58, 127.76 30.06, 152.14 1.08 M82.79 83.9 C110.29 53.76, 137.25 22.62, 154.96 0.88 M82.79 83.9 C98.32 67.09, 112.55 51.24, 154.96 0.88 M85.62 83.7 C101.94 65.22, 122.15 43.05, 157.13 1.44 M85.62 83.7 C108.85 56.83, 132.71 30.02, 157.13 1.44 M87.78 84.26 C115.69 49.27, 145.06 18.3, 159.95 1.24 M87.78 84.26 C112.86 53.56, 139.95 23.66, 159.95 1.24 M90.6 84.06 C110.11 60.76, 127.29 40.7, 162.77 1.04 M90.6 84.06 C105.98 65.04, 124.58 45.01, 162.77 1.04 M93.42 83.86 C114.76 59.15, 136.93 34.85, 165.59 0.84 M93.42 83.86 C112.92 58.93, 134.64 36.5, 165.59 0.84 M96.25 83.67 C113.02 67.41, 129.21 47.51, 167.76 1.4 M96.25 83.67 C123.42 52.7, 150.57 23.02, 167.76 1.4 M98.41 84.22 C119.25 62.18, 137.35 40.5, 171.23 0.45 M98.41 84.22 C117.17 64.93, 133.61 44.84, 171.23 0.45 M101.23 84.03 C128.45 52.46, 158.47 18.95, 173.4 1.01 M101.23 84.03 C121.5 60.62, 143.88 35.13, 173.4 1.01 M104.05 83.83 C131.58 51.81, 155.46 24.34, 175.56 1.56 M104.05 83.83 C121.46 64.75, 138.21 46.05, 175.56 1.56 M106.88 83.63 C133.27 51.88, 159.08 20.02, 177.73 2.12 M106.88 83.63 C133.93 52.24, 160.69 22.26, 177.73 2.12 M109.04 84.19 C130 59.04, 152.82 33.54, 180.55 1.92 M109.04 84.19 C128.43 61.09, 147.16 38.98, 180.55 1.92 M111.86 83.99 C128 67.51, 144.26 46.91, 182.06 3.24 M111.86 83.99 C127.5 65.33, 143.84 46.61, 182.06 3.24 M114.68 83.79 C135.72 61.18, 153.86 39.59, 183.57 4.55 M114.68 83.79 C138.11 56.86, 161 28.3, 183.57 4.55 M117.51 83.6 C141.48 56.82, 165 30.57, 185.74 5.11 M117.51 83.6 C135.48 63.17, 153.88 41.58, 185.74 5.11 M119.67 84.15 C135.94 63.62, 152.61 45.3, 186.59 7.17 M119.67 84.15 C145.46 54.37, 170.63 25.11, 186.59 7.17 M122.49 83.96 C143.58 56.38, 168.14 34.1, 187.44 9.24 M122.49 83.96 C144.39 56.96, 169.19 30.5, 187.44 9.24 M125.31 83.76 C147.28 58.74, 167.01 36.31, 188.3 11.31 M125.31 83.76 C148.66 57.76, 171.2 33.25, 188.3 11.31 M127.48 84.32 C144.6 64.89, 161.76 46.01, 189.15 13.37 M127.48 84.32 C152.13 56.48, 174.58 27.21, 189.15 13.37 M130.3 84.12 C151.12 61.87, 172.28 35.44, 190 15.44 M130.3 84.12 C149.27 61.6, 169.92 38.73, 190 15.44 M133.12 83.92 C150.12 63.04, 170.54 41.4, 191.51 16.75 M133.12 83.92 C148.17 66.4, 162.5 50.46, 191.51 16.75 M135.94 83.72 C155.04 61.28, 177.18 37.23, 191.71 19.57 M135.94 83.72 C149.46 67.76, 162.85 52.5, 191.71 19.57 M138.11 84.28 C156.27 62.6, 171.9 44.49, 191.25 23.15 M138.11 84.28 C154.71 65.72, 171.82 45.57, 191.25 23.15 M140.93 84.08 C153.11 67.64, 170.55 49.9, 191.45 25.97 M140.93 84.08 C154.75 67.85, 170.5 49.32, 191.45 25.97 M143.75 83.89 C159.01 66.35, 175.1 48.01, 191.65 28.79 M143.75 83.89 C157.17 67.28, 171.32 50.36, 191.65 28.79 M146.57 83.69 C157.19 71.85, 169.26 57.91, 191.84 31.62 M146.57 83.69 C162.77 64.11, 180.74 44.59, 191.84 31.62 M148.74 84.25 C160.22 72.04, 170.77 56.75, 191.38 35.19 M148.74 84.25 C159.22 73.36, 169.09 60.57, 191.38 35.19 M151.56 84.05 C160.22 73.64, 171.07 59.87, 191.58 38.01 M151.56 84.05 C161.13 71.14, 173.37 60.14, 191.58 38.01 M154.38 83.85 C160.92 75.63, 169.64 64.38, 191.78 40.83 M154.38 83.85 C165.89 70.81, 175.37 58.75, 191.78 40.83 M157.2 83.66 C168.92 68.62, 181.91 55.96, 191.98 43.66 M157.2 83.66 C170.06 68.25, 183.55 53.84, 191.98 43.66 M159.37 84.21 C172.46 70.51, 183.84 58.42, 191.52 47.23 M159.37 84.21 C171.44 71.48, 181.71 56.54, 191.52 47.23 M162.19 84.02 C170.02 74.98, 177.33 64.73, 191.71 50.05 M162.19 84.02 C170.71 74.76, 179.27 64.87, 191.71 50.05 M165.01 83.82 C175.35 72.6, 182.86 63.47, 191.91 52.88 M165.01 83.82 C171.56 75.79, 179.78 67.16, 191.91 52.88 M167.83 83.62 C175.05 75.55, 184.77 67.24, 191.45 56.45 M167.83 83.62 C174.47 74.41, 182.78 66.39, 191.45 56.45 M170.66 83.42 C176.28 77.05, 184.71 66.14, 191.65 59.27 M170.66 83.42 C179.09 74.61, 186.23 66.42, 191.65 59.27 M174.13 82.47 C179.76 77.79, 186.86 68.68, 191.19 62.85 M174.13 82.47 C180.82 75.84, 186.15 67.19, 191.19 62.85 M176.96 82.27 C181.29 77.47, 187.34 71.87, 190.73 66.43 M176.96 82.27 C181.57 78.3, 186.1 72.44, 190.73 66.43 M180.43 81.32 C183.65 79.19, 187.33 74.16, 190.27 70 M180.43 81.32 C183.91 76.71, 187.48 71.67, 190.27 70" stroke="#ffec99" stroke-width="0.25" fill="none"></path><path d="M20.77 0 M20.77 0 C53.73 1.18, 86.2 0.7, 170 0 M20.77 0 C63.55 0.67, 107.25 0.54, 170 0 M170 0 C184.82 -1.93, 189.28 7.26, 190.77 20.77 M170 0 C182.92 -0.92, 189.08 5.46, 190.77 20.77 M190.77 20.77 C189.23 35.63, 190.05 53.01, 190.77 62.31 M190.77 20.77 C191.29 29.96, 189.79 37.98, 190.77 62.31 M190.77 62.31 C190.97 74.78, 182.95 83.23, 170 83.08 M190.77 62.31 C191.43 74.26, 181.63 81, 170 83.08 M170 83.08 C127.75 81.73, 89.89 82.44, 20.77 83.08 M170 83.08 C137.9 81.45, 104.39 82.4, 20.77 83.08 M20.77 83.08 C6.35 81.76, -0.52 76.89, 0 62.31 M20.77 83.08 C5.87 81.83, -0.87 74.49, 0 62.31 M0 62.31 C-0.89 53.39, 0.47 45.66, 0 20.77 M0 62.31 C-1.31 49.84, -0.66 35.12, 0 20.77 M0 20.77 C0.69 8.78, 5.86 -1.93, 20.77 0 M0 20.77 C-1.74 8.16, 6.29 2.3, 20.77 0" stroke="#fa5252" stroke-width="0.5" fill="none"></path></g><g stroke-linecap="round" transform="translate(729.3371139914307 311.88841130183306) rotate(0 95.38461538461536 41.53846153846149)"><path d="M3.06 7.96 C3.06 7.96, 3.06 7.96, 3.06 7.96 M3.06 7.96 C3.06 7.96, 3.06 7.96, 3.06 7.96 M1.29 13.04 C2.78 9, 6.81 7.58, 9.16 3.99 M1.29 13.04 C3.29 10.15, 6.2 7.46, 9.16 3.99 M0.83 16.62 C5.38 13.6, 7.82 10.28, 12.64 3.03 M0.83 16.62 C5.47 12.29, 8.5 7.19, 12.64 3.03 M1.02 19.44 C8.37 11.96, 11.41 5.41, 16.11 2.08 M1.02 19.44 C7.46 13.04, 12.37 5.55, 16.11 2.08 M1.22 22.26 C6.29 18.51, 9.68 14.04, 18.93 1.88 M1.22 22.26 C6.39 16.25, 11.26 11.19, 18.93 1.88 M0.76 25.84 C7.75 16.83, 13.85 11.55, 22.41 0.93 M0.76 25.84 C8.53 16.85, 17.83 7.62, 22.41 0.93 M0.96 28.66 C4.49 24.51, 12.74 18.94, 24.58 1.49 M0.96 28.66 C10.06 18.93, 17.99 9.17, 24.58 1.49 M1.16 31.48 C5.54 25.92, 11.66 17.11, 27.4 1.29 M1.16 31.48 C10.25 21.1, 18.84 11.31, 27.4 1.29 M0.7 35.06 C10.07 22.72, 21.84 12.5, 30.22 1.1 M0.7 35.06 C8.07 25.63, 16.34 15.41, 30.22 1.1 M0.9 37.88 C12.79 26.87, 23.45 12.62, 33.04 0.9 M0.9 37.88 C12.72 24.29, 25.03 9.18, 33.04 0.9 M1.09 40.7 C10.28 34.18, 14.29 23.33, 35.21 1.46 M1.09 40.7 C7.56 33.41, 14.22 23.9, 35.21 1.46 M1.29 43.52 C7.7 35.26, 17.68 25.51, 38.03 1.26 M1.29 43.52 C14.17 28.07, 28.25 14.06, 38.03 1.26 M0.83 47.1 C14.94 29.13, 29.13 13.18, 40.85 1.06 M0.83 47.1 C13.31 32.67, 25.51 16.79, 40.85 1.06 M1.03 49.92 C10.86 38.76, 19.35 24.44, 43.67 0.86 M1.03 49.92 C10.59 39.87, 19.11 29.18, 43.67 0.86 M1.23 52.74 C18.18 32.74, 34.03 16.27, 45.84 1.42 M1.23 52.74 C17.01 34.2, 35.01 13.33, 45.84 1.42 M0.77 56.32 C17.4 35.66, 33.12 18.27, 48.66 1.22 M0.77 56.32 C14.97 39.17, 29.1 23.66, 48.66 1.22 M0.96 59.14 C14.63 43.2, 25.2 32.65, 51.48 1.03 M0.96 59.14 C15.56 41.83, 32.5 23.02, 51.48 1.03 M1.16 61.96 C20.07 36.87, 43.68 14.75, 53.65 1.58 M1.16 61.96 C12.78 48.28, 23.98 36.27, 53.65 1.58 M0.7 65.54 C21.87 39.11, 45.64 16.34, 56.47 1.39 M0.7 65.54 C12.54 52.8, 23.37 39.08, 56.47 1.39 M1.56 67.6 C18.57 49.63, 34.09 30.5, 59.29 1.19 M1.56 67.6 C19.17 44.67, 38.78 23.73, 59.29 1.19 M1.75 70.43 C13.09 55.44, 24.79 42.82, 62.11 0.99 M1.75 70.43 C23.99 44.14, 46.29 19.35, 62.11 0.99 M2.61 72.49 C17.17 59.05, 29.7 43.46, 64.28 1.55 M2.61 72.49 C22.49 51.24, 41.68 28.12, 64.28 1.55 M2.8 75.31 C24.81 48.35, 51.12 22.12, 67.1 1.35 M2.8 75.31 C18.77 58.95, 32.04 40.07, 67.1 1.35 M4.31 76.63 C27.54 51.93, 49.58 27.66, 69.92 1.15 M4.31 76.63 C30.75 46.71, 55.93 16.88, 69.92 1.15 M6.48 77.18 C31.36 48.82, 54.47 22.18, 72.74 0.96 M6.48 77.18 C23.98 57.31, 40.7 38.36, 72.74 0.96 M7.99 78.5 C26.75 58.43, 42.09 41.24, 74.91 1.51 M7.99 78.5 C27.68 57.3, 45.32 35.3, 74.91 1.51 M9.5 79.81 C32.77 54.53, 56.86 24.75, 77.73 1.32 M9.5 79.81 C25.38 60.23, 43.11 40.17, 77.73 1.32 M11.01 81.12 C29.61 61.43, 47.91 37.97, 80.55 1.12 M11.01 81.12 C29.36 59.47, 48.17 38.68, 80.55 1.12 M12.52 82.43 C33.35 55.08, 54.59 31.37, 83.37 0.92 M12.52 82.43 C39.05 50.29, 66.76 18.57, 83.37 0.92 M14.68 82.99 C29.87 64.55, 46.11 45.63, 85.54 1.48 M14.68 82.99 C36.58 56.16, 59.22 30.56, 85.54 1.48 M17.5 82.79 C41.9 55.15, 65.13 29.16, 88.36 1.28 M17.5 82.79 C34.92 63.13, 51.2 42.7, 88.36 1.28 M19.67 83.35 C32.54 67.33, 47.83 52.41, 91.18 1.09 M19.67 83.35 C45.83 53.15, 72.28 22.11, 91.18 1.09 M21.84 83.91 C46.17 61.3, 64 33.82, 94 0.89 M21.84 83.91 C47.3 52.67, 73.48 23.67, 94 0.89 M24.66 83.71 C42.1 63.26, 59.09 41.66, 96.17 1.45 M24.66 83.71 C42.7 63.87, 59.45 42.33, 96.17 1.45 M26.82 84.27 C52.13 53.8, 79.04 25.72, 98.99 1.25 M26.82 84.27 C44.88 63.51, 63.19 42.86, 98.99 1.25 M29.64 84.07 C46.02 64.26, 65.24 44.33, 101.81 1.05 M29.64 84.07 C54.08 54.91, 78.43 28.86, 101.81 1.05 M32.47 83.87 C55.58 57.26, 75.38 34.35, 104.63 0.85 M32.47 83.87 C49.57 66.29, 64.11 47.67, 104.63 0.85 M35.29 83.67 C52.17 66.02, 64.92 48.82, 106.8 1.41 M35.29 83.67 C57.46 57.9, 79.18 32.59, 106.8 1.41 M37.45 84.23 C66.47 53.28, 94.77 18.3, 109.62 1.21 M37.45 84.23 C60.94 57.92, 82.06 30.34, 109.62 1.21 M40.27 84.03 C57.84 65.77, 73.72 44.82, 112.44 1.02 M40.27 84.03 C55.33 67.05, 71.57 49.89, 112.44 1.02 M43.1 83.84 C64.46 58.77, 84.1 34.65, 114.61 1.57 M43.1 83.84 C59.53 65.77, 75.31 48.26, 114.61 1.57 M45.92 83.64 C73.33 54.12, 98.3 22.12, 117.43 1.38 M45.92 83.64 C73.2 52.89, 99.29 21.82, 117.43 1.38 M48.08 84.2 C73.64 52.58, 100.85 24.53, 120.25 1.18 M48.08 84.2 C72.36 57.22, 94.07 29.31, 120.25 1.18 M50.9 84 C70.21 62.41, 85.74 39.68, 123.07 0.98 M50.9 84 C71.26 59.17, 91.6 36.48, 123.07 0.98 M53.73 83.8 C82.66 50.27, 109.23 18.39, 125.24 1.54 M53.73 83.8 C71.31 62.65, 91.06 41.3, 125.24 1.54 M56.55 83.61 C80.58 57.03, 106.84 28.42, 128.06 1.34 M56.55 83.61 C79.76 57, 103.69 28.21, 128.06 1.34 M58.71 84.16 C74.35 65.97, 91.55 43.95, 130.88 1.15 M58.71 84.16 C86.33 52.53, 113.28 21.87, 130.88 1.15 M61.53 83.97 C83.66 59.34, 106.16 35.51, 133.7 0.95 M61.53 83.97 C80.11 60.55, 99.26 37.56, 133.7 0.95 M64.36 83.77 C89.4 55.56, 112.19 28.28, 135.87 1.51 M64.36 83.77 C83.37 64.05, 101.1 42.59, 135.87 1.51 M66.52 84.33 C92.29 55.11, 118.85 25.83, 138.69 1.31 M66.52 84.33 C90.59 56.43, 112.23 29.24, 138.69 1.31 M69.34 84.13 C89.68 61.76, 108.58 38.95, 141.51 1.11 M69.34 84.13 C96.98 51.57, 126.14 19.25, 141.51 1.11 M72.16 83.93 C100.26 51.46, 127.57 22.74, 144.33 0.91 M72.16 83.93 C94.72 59.23, 116.56 35.59, 144.33 0.91 M74.99 83.73 C101.48 52.01, 133.32 17.05, 146.5 1.47 M74.99 83.73 C98.15 56.77, 121.4 30.87, 146.5 1.47 M77.15 84.29 C105.93 51.44, 133 18.5, 149.32 1.27 M77.15 84.29 C96.56 61.25, 116.99 39.43, 149.32 1.27 M79.97 84.09 C105.32 52.3, 135.57 23.27, 152.14 1.08 M79.97 84.09 C104.22 56.04, 126.63 30.61, 152.14 1.08 M82.79 83.9 C101.44 62.6, 117.69 43.42, 154.96 0.88 M82.79 83.9 C106.3 56.98, 129.22 29.25, 154.96 0.88 M85.62 83.7 C102.58 62.66, 119.14 42.5, 157.13 1.44 M85.62 83.7 C103.79 61.93, 122.8 40.13, 157.13 1.44 M87.78 84.26 C118.53 53.17, 146.35 19.99, 159.95 1.24 M87.78 84.26 C114.74 52.67, 141.13 23.02, 159.95 1.24 M90.6 84.06 C118.45 54.6, 145.86 21.39, 162.77 1.04 M90.6 84.06 C116.86 53.93, 141.87 24.69, 162.77 1.04 M93.42 83.86 C110.39 61.96, 131.49 41.23, 165.59 0.84 M93.42 83.86 C116.8 55.89, 141.54 29.48, 165.59 0.84 M96.25 83.67 C120.84 57.02, 144.03 29.19, 167.76 1.4 M96.25 83.67 C113.52 64.65, 129.62 43.34, 167.76 1.4 M98.41 84.22 C119.87 57.93, 142.9 32.39, 171.23 0.45 M98.41 84.22 C126.46 53, 155.03 20.42, 171.23 0.45 M101.23 84.03 C123.83 55.92, 146.99 29.51, 173.4 1.01 M101.23 84.03 C121.89 59.55, 142.1 37.69, 173.4 1.01 M104.05 83.83 C127.76 56.56, 154.49 25.2, 175.56 1.56 M104.05 83.83 C126.4 56.83, 149.62 32.17, 175.56 1.56 M106.88 83.63 C123.15 63.23, 142.01 44.29, 177.73 2.12 M106.88 83.63 C127.44 61.27, 146.36 39.31, 177.73 2.12 M109.04 84.19 C123.73 63.04, 142.31 48.09, 180.55 1.92 M109.04 84.19 C133.98 54.65, 161.01 24.95, 180.55 1.92 M111.86 83.99 C127.98 68.66, 140.05 51.5, 182.06 3.24 M111.86 83.99 C134.66 56.17, 157.95 30.27, 182.06 3.24 M114.68 83.79 C140.28 52.98, 168.16 22.4, 183.57 4.55 M114.68 83.79 C136.45 57.52, 160.3 32.26, 183.57 4.55 M117.51 83.6 C143.52 55.16, 169 25.72, 185.74 5.11 M117.51 83.6 C132.23 67.71, 145.67 52.77, 185.74 5.11 M119.67 84.15 C134.89 66.96, 153.97 46.09, 186.59 7.17 M119.67 84.15 C141.39 59.01, 163.71 33.98, 186.59 7.17 M122.49 83.96 C147.61 52.3, 174.12 24.62, 187.44 9.24 M122.49 83.96 C144.99 56.26, 169.5 29.33, 187.44 9.24 M125.31 83.76 C142.58 63.22, 157.42 45.85, 188.3 11.31 M125.31 83.76 C138.62 67.27, 155.09 49.69, 188.3 11.31 M127.48 84.32 C145.61 63.28, 164.55 42.71, 189.15 13.37 M127.48 84.32 C144 62.87, 162.64 43.98, 189.15 13.37 M130.3 84.12 C144.44 70.76, 158.04 53.85, 190 15.44 M130.3 84.12 C152.98 58.17, 175.69 33.6, 190 15.44 M133.12 83.92 C150.16 66.04, 164.6 48.57, 191.51 16.75 M133.12 83.92 C148.35 68.61, 161.38 52.45, 191.51 16.75 M135.94 83.72 C156.56 59.49, 180.12 33.42, 191.71 19.57 M135.94 83.72 C151.47 65.7, 169.07 45.72, 191.71 19.57 M138.11 84.28 C158.75 60.11, 175.8 40.48, 191.25 23.15 M138.11 84.28 C151.15 70.07, 163.55 56.37, 191.25 23.15 M140.93 84.08 C159.69 61.42, 177.77 38.45, 191.45 25.97 M140.93 84.08 C160.44 61.56, 179.44 40.5, 191.45 25.97 M143.75 83.89 C157.43 67.13, 173.12 49.83, 191.65 28.79 M143.75 83.89 C156.84 68.28, 169.15 53.55, 191.65 28.79 M146.57 83.69 C157.32 73.5, 167.92 59.41, 191.84 31.62 M146.57 83.69 C156.72 71.66, 167.51 59.33, 191.84 31.62 M148.74 84.25 C162.15 69.96, 172.94 56.82, 191.38 35.19 M148.74 84.25 C163.21 67.81, 177.06 49.65, 191.38 35.19 M151.56 84.05 C165.88 68.3, 179.95 52.92, 191.58 38.01 M151.56 84.05 C162.05 72.25, 172.81 59.46, 191.58 38.01 M154.38 83.85 C163.69 71.69, 173.21 61.6, 191.78 40.83 M154.38 83.85 C168.86 67.16, 182.61 51.05, 191.78 40.83 M157.2 83.66 C168.09 68.03, 182.1 57.88, 191.98 43.66 M157.2 83.66 C168.5 69.3, 182.49 55.27, 191.98 43.66 M159.37 84.21 C171.19 70.87, 180.99 59.86, 191.52 47.23 M159.37 84.21 C171.42 70.73, 182.97 58.86, 191.52 47.23 M162.19 84.02 C170.62 74.29, 179.22 65.26, 191.71 50.05 M162.19 84.02 C174.49 70.96, 184.35 56.16, 191.71 50.05 M165.01 83.82 C174.24 74.52, 183.87 61.34, 191.91 52.88 M165.01 83.82 C173.07 73.73, 182.7 63.53, 191.91 52.88 M167.83 83.62 C173.55 75.85, 182.5 67.41, 191.45 56.45 M167.83 83.62 C173.73 76.12, 179.17 70.41, 191.45 56.45 M170.66 83.42 C177.18 75.48, 186.76 65.87, 191.65 59.27 M170.66 83.42 C175.68 76.92, 180.85 71.11, 191.65 59.27 M174.13 82.47 C180.61 74.94, 184.25 70.63, 191.19 62.85 M174.13 82.47 C179.05 76.73, 184.89 69.55, 191.19 62.85 M176.96 82.27 C179.09 77.91, 186.23 72.01, 190.73 66.43 M176.96 82.27 C180.33 78.48, 185.25 72.4, 190.73 66.43 M180.43 81.32 C183.39 77.36, 187.26 73.03, 190.27 70 M180.43 81.32 C182.77 77.93, 185.6 74.21, 190.27 70" stroke="#ffec99" stroke-width="0.25" fill="none"></path><path d="M20.77 0 M20.77 0 C56.21 1.14, 92.88 -0.47, 170 0 M20.77 0 C75.57 -1.11, 132.4 -1.15, 170 0 M170 0 C183.15 0.51, 190.36 7.21, 190.77 20.77 M170 0 C184.68 -0.56, 188.99 5.3, 190.77 20.77 M190.77 20.77 C192.54 30.95, 189.47 38.59, 190.77 62.31 M190.77 20.77 C192.03 35.66, 191.04 50.86, 190.77 62.31 M190.77 62.31 C192.16 75.17, 182.44 81.23, 170 83.08 M190.77 62.31 C192.96 76.72, 182.07 84.15, 170 83.08 M170 83.08 C123.34 83.83, 79.02 85.48, 20.77 83.08 M170 83.08 C136.35 82.12, 104.92 82.65, 20.77 83.08 M20.77 83.08 C7.36 82.4, -0.46 75.87, 0 62.31 M20.77 83.08 C8.5 84.99, 0.07 76.12, 0 62.31 M0 62.31 C1.69 53.19, 0.18 42.36, 0 20.77 M0 62.31 C0.94 48.15, 0.63 32.88, 0 20.77 M0 20.77 C1.29 8.43, 5.39 -1.48, 20.77 0 M0 20.77 C-0.48 6.7, 6.11 -0.5, 20.77 0" stroke="#fa5252" stroke-width="0.5" fill="none"></path></g><g stroke-linecap="round" transform="translate(733.1832678375845 411.1191805326023) rotate(0 95.38461538461536 41.5384615384615)"><path d="M3.06 7.96 C3.06 7.96, 3.06 7.96, 3.06 7.96 M3.06 7.96 C3.06 7.96, 3.06 7.96, 3.06 7.96 M1.29 13.04 C4.1 10.77, 4.98 7.79, 9.16 3.99 M1.29 13.04 C3.43 11.15, 5.26 8.39, 9.16 3.99 M0.83 16.62 C4.74 14.96, 5.14 10.44, 12.64 3.03 M0.83 16.62 C5.1 11.83, 9.24 8.76, 12.64 3.03 M1.02 19.44 C6.93 15.16, 9.24 8.5, 16.11 2.08 M1.02 19.44 C4.93 14.66, 10 8.95, 16.11 2.08 M1.22 22.26 C7.12 15.52, 13.67 7.9, 18.93 1.88 M1.22 22.26 C5.52 17.62, 9.4 13.74, 18.93 1.88 M0.76 25.84 C10.45 16.52, 18.64 4.41, 22.41 0.93 M0.76 25.84 C7.64 17.44, 14.59 9.35, 22.41 0.93 M0.96 28.66 C10.96 19.03, 21.45 7.11, 24.58 1.49 M0.96 28.66 C6.44 21.99, 10.78 17, 24.58 1.49 M1.16 31.48 C9.69 24.73, 15.39 14.41, 27.4 1.29 M1.16 31.48 C11.09 20.13, 20.8 7.51, 27.4 1.29 M0.7 35.06 C7.75 28.51, 12 23.46, 30.22 1.1 M0.7 35.06 C8.04 27.27, 13.19 19.49, 30.22 1.1 M0.9 37.88 C11.12 26.26, 23.18 10.05, 33.04 0.9 M0.9 37.88 C8.6 29.72, 14.63 22.52, 33.04 0.9 M1.09 40.7 C8.04 31.89, 15.62 23.69, 35.21 1.46 M1.09 40.7 C10.47 30.82, 18.16 18.93, 35.21 1.46 M1.29 43.52 C9.79 30.48, 21.44 18.55, 38.03 1.26 M1.29 43.52 C11.37 30.56, 22.83 19.08, 38.03 1.26 M0.83 47.1 C16.23 29.86, 32.35 8.91, 40.85 1.06 M0.83 47.1 C10.61 36.96, 19.25 27.33, 40.85 1.06 M1.03 49.92 C15.11 29.83, 34.31 11.99, 43.67 0.86 M1.03 49.92 C15.76 33.92, 28.39 19.04, 43.67 0.86 M1.23 52.74 C13.69 36.32, 28.65 22.8, 45.84 1.42 M1.23 52.74 C16.71 35.07, 32.84 16.47, 45.84 1.42 M0.77 56.32 C12.38 43.08, 22.07 32.9, 48.66 1.22 M0.77 56.32 C12.07 44.74, 21.77 31.52, 48.66 1.22 M0.96 59.14 C14.17 46.26, 25.38 35.83, 51.48 1.03 M0.96 59.14 C16.1 40.36, 32.65 22.99, 51.48 1.03 M1.16 61.96 C14.24 46.89, 27.13 33.81, 53.65 1.58 M1.16 61.96 C11.5 48.73, 22.46 36.64, 53.65 1.58 M0.7 65.54 C14.4 48.8, 30.51 29.16, 56.47 1.39 M0.7 65.54 C18.97 43.51, 39.12 19.66, 56.47 1.39 M1.56 67.6 C18.05 45.08, 35.61 26.69, 59.29 1.19 M1.56 67.6 C20.81 43.69, 40.82 21.71, 59.29 1.19 M1.75 70.43 C19.96 50.33, 40.29 27.86, 62.11 0.99 M1.75 70.43 C22.95 46.74, 43.78 21.61, 62.11 0.99 M2.61 72.49 C16.52 55.58, 33.1 34.31, 64.28 1.55 M2.61 72.49 C19.51 53.33, 36.86 32.67, 64.28 1.55 M2.8 75.31 C16.46 61.47, 30.74 45.66, 67.1 1.35 M2.8 75.31 C23.7 51.67, 45.09 27.33, 67.1 1.35 M4.31 76.63 C18.85 60.27, 31.27 43.24, 69.92 1.15 M4.31 76.63 C30.11 46.48, 56.37 17.62, 69.92 1.15 M6.48 77.18 C29.16 48.55, 56.03 24.46, 72.74 0.96 M6.48 77.18 C31.75 48.69, 57.15 18.82, 72.74 0.96 M7.99 78.5 C27.04 55.57, 46.85 34.48, 74.91 1.51 M7.99 78.5 C25.66 58.61, 42.23 38.41, 74.91 1.51 M9.5 79.81 C33.89 48.34, 61.49 19.3, 77.73 1.32 M9.5 79.81 C32.36 52.93, 54.92 26.99, 77.73 1.32 M11.01 81.12 C25.59 63.73, 43.93 45.03, 80.55 1.12 M11.01 81.12 C33.42 55.07, 55.66 29.53, 80.55 1.12 M12.52 82.43 C32.88 64.04, 51.39 40.17, 83.37 0.92 M12.52 82.43 C31.14 62.06, 48.73 41.93, 83.37 0.92 M14.68 82.99 C30.29 64.1, 46.26 49.05, 85.54 1.48 M14.68 82.99 C32.24 62.44, 49.56 42.97, 85.54 1.48 M17.5 82.79 C39.99 54.13, 63.9 25.68, 88.36 1.28 M17.5 82.79 C42.56 53.61, 67.51 24.36, 88.36 1.28 M19.67 83.35 C41.59 60.53, 60.21 36.37, 91.18 1.09 M19.67 83.35 C34.89 66.22, 51.11 47.95, 91.18 1.09 M21.84 83.91 C43.51 57.02, 67.84 28.87, 94 0.89 M21.84 83.91 C44.22 56.51, 67.83 31.4, 94 0.89 M24.66 83.71 C40.05 66.29, 52.9 48.03, 96.17 1.45 M24.66 83.71 C50.56 53.91, 75.68 23.98, 96.17 1.45 M26.82 84.27 C55.79 53.99, 80.96 20.57, 98.99 1.25 M26.82 84.27 C54.42 52.48, 81.27 23.13, 98.99 1.25 M29.64 84.07 C50.36 57.18, 70.97 35.02, 101.81 1.05 M29.64 84.07 C56.35 55.43, 80.42 26.41, 101.81 1.05 M32.47 83.87 C57.95 54.63, 80.57 27.91, 104.63 0.85 M32.47 83.87 C59.98 53.27, 87.57 21.59, 104.63 0.85 M35.29 83.67 C49.93 67.81, 65.32 50.47, 106.8 1.41 M35.29 83.67 C52.29 62.49, 68.35 43.34, 106.8 1.41 M37.45 84.23 C59.02 58.09, 80.72 32.32, 109.62 1.21 M37.45 84.23 C62.52 55.06, 87.07 25.97, 109.62 1.21 M40.27 84.03 C61.03 62.6, 82.4 39.14, 112.44 1.02 M40.27 84.03 C67.68 52.94, 96.2 21.15, 112.44 1.02 M43.1 83.84 C61.39 60.55, 80.4 41.57, 114.61 1.57 M43.1 83.84 C69.6 54.7, 96.72 22.89, 114.61 1.57 M45.92 83.64 C61.68 68.59, 75.34 52.39, 117.43 1.38 M45.92 83.64 C69.69 57.04, 92.82 29.2, 117.43 1.38 M48.08 84.2 C66.33 63.16, 85.05 40.35, 120.25 1.18 M48.08 84.2 C64.18 65.15, 81.26 45.32, 120.25 1.18 M50.9 84 C80.9 53.77, 107.2 20.15, 123.07 0.98 M50.9 84 C75.35 56.66, 100.36 27.31, 123.07 0.98 M53.73 83.8 C72.44 59.84, 95.94 36.67, 125.24 1.54 M53.73 83.8 C68.97 66, 83.41 50, 125.24 1.54 M56.55 83.61 C72 67.35, 87.36 50.74, 128.06 1.34 M56.55 83.61 C74.21 62.53, 92.35 41.84, 128.06 1.34 M58.71 84.16 C81.65 56.92, 102.04 30.04, 130.88 1.15 M58.71 84.16 C79.68 57.52, 101.77 31.97, 130.88 1.15 M61.53 83.97 C82.58 60.6, 101.72 38.34, 133.7 0.95 M61.53 83.97 C77.21 65.04, 92.3 46.79, 133.7 0.95 M64.36 83.77 C81.92 62.94, 100.54 41.02, 135.87 1.51 M64.36 83.77 C92.69 51.85, 120.85 18.74, 135.87 1.51 M66.52 84.33 C83.3 63.4, 101.42 44.8, 138.69 1.31 M66.52 84.33 C93.39 51.68, 122 19.27, 138.69 1.31 M69.34 84.13 C87 64.81, 109.22 39.07, 141.51 1.11 M69.34 84.13 C88.91 61.08, 107.02 38.74, 141.51 1.11 M72.16 83.93 C98.59 52.84, 125.77 21.37, 144.33 0.91 M72.16 83.93 C87.12 67.7, 102.07 50.13, 144.33 0.91 M74.99 83.73 C88.69 65.53, 103.86 48.95, 146.5 1.47 M74.99 83.73 C104.35 51.48, 132.15 19.48, 146.5 1.47 M77.15 84.29 C105.03 53.62, 130.04 25.83, 149.32 1.27 M77.15 84.29 C99.61 59.43, 119.81 34.51, 149.32 1.27 M79.97 84.09 C108.45 52.99, 134.87 18.53, 152.14 1.08 M79.97 84.09 C107.96 54.59, 135.13 22.57, 152.14 1.08 M82.79 83.9 C106.92 56.92, 132.67 25.88, 154.96 0.88 M82.79 83.9 C99.44 64.54, 115.92 44.82, 154.96 0.88 M85.62 83.7 C101.06 65.88, 118.85 47.27, 157.13 1.44 M85.62 83.7 C104.7 63.31, 122.75 40.5, 157.13 1.44 M87.78 84.26 C107.4 62.71, 127.79 39.55, 159.95 1.24 M87.78 84.26 C112.36 56.04, 137.35 29.06, 159.95 1.24 M90.6 84.06 C118.27 53.44, 143.97 21.06, 162.77 1.04 M90.6 84.06 C108.21 64.09, 126.4 43.55, 162.77 1.04 M93.42 83.86 C116.59 60.28, 137.46 34.25, 165.59 0.84 M93.42 83.86 C110.06 64.01, 127.89 43, 165.59 0.84 M96.25 83.67 C110.58 64.96, 125.13 47.9, 167.76 1.4 M96.25 83.67 C125.01 51.71, 153.39 17.17, 167.76 1.4 M98.41 84.22 C116.47 64.44, 134.24 40.86, 171.23 0.45 M98.41 84.22 C113.04 66.86, 126.94 49.45, 171.23 0.45 M101.23 84.03 C125.46 56.29, 148.87 26.19, 173.4 1.01 M101.23 84.03 C124.32 57.75, 146.35 33.59, 173.4 1.01 M104.05 83.83 C126.9 54.32, 155.05 27.02, 175.56 1.56 M104.05 83.83 C127.34 55.13, 152.86 27.09, 175.56 1.56 M106.88 83.63 C128.36 58.92, 149.84 35.67, 177.73 2.12 M106.88 83.63 C121.5 66.6, 136.33 48.89, 177.73 2.12 M109.04 84.19 C126.09 63.87, 144.9 43.99, 180.55 1.92 M109.04 84.19 C137.23 51.21, 164.21 18.7, 180.55 1.92 M111.86 83.99 C128.99 67, 142.85 47.81, 182.06 3.24 M111.86 83.99 C135.24 58.64, 159.02 32.1, 182.06 3.24 M114.68 83.79 C132.94 64.3, 149.16 45.6, 183.57 4.55 M114.68 83.79 C141.4 53.95, 166.88 21.64, 183.57 4.55 M117.51 83.6 C131.21 67.26, 147 49.54, 185.74 5.11 M117.51 83.6 C135.76 61.01, 154.87 39.93, 185.74 5.11 M119.67 84.15 C132.16 67.43, 147.55 49.99, 186.59 7.17 M119.67 84.15 C143.17 57.42, 167.44 30.07, 186.59 7.17 M122.49 83.96 C148.25 53.35, 173.24 28, 187.44 9.24 M122.49 83.96 C139.6 63.35, 157.41 42.8, 187.44 9.24 M125.31 83.76 C146.9 58.92, 168.34 32.52, 188.3 11.31 M125.31 83.76 C139.74 65.94, 155.07 48.97, 188.3 11.31 M127.48 84.32 C149.14 57.12, 170.69 34.83, 189.15 13.37 M127.48 84.32 C149.22 60.97, 168.64 35.99, 189.15 13.37 M130.3 84.12 C150.51 59.79, 172.76 33.02, 190 15.44 M130.3 84.12 C151.85 60, 172.62 35.39, 190 15.44 M133.12 83.92 C146.07 68.74, 157.97 53.11, 191.51 16.75 M133.12 83.92 C150.08 65.31, 165.4 47.41, 191.51 16.75 M135.94 83.72 C149.31 68.88, 166.18 51.33, 191.71 19.57 M135.94 83.72 C154.74 63.17, 171.66 42.02, 191.71 19.57 M138.11 84.28 C154.92 64.13, 174.96 43.77, 191.25 23.15 M138.11 84.28 C155.08 66.1, 170.32 46.85, 191.25 23.15 M140.93 84.08 C152.73 66.66, 167.4 53.12, 191.45 25.97 M140.93 84.08 C161.12 61.23, 179.52 39.97, 191.45 25.97 M143.75 83.89 C160.57 67.19, 175.59 49.12, 191.65 28.79 M143.75 83.89 C156.16 71.56, 167.57 57.84, 191.65 28.79 M146.57 83.69 C156.72 71.96, 164.84 62.05, 191.84 31.62 M146.57 83.69 C156.56 70.17, 169.54 57.34, 191.84 31.62 M148.74 84.25 C165.5 65.78, 178.24 48.22, 191.38 35.19 M148.74 84.25 C161.92 70.81, 172.42 56.98, 191.38 35.19 M151.56 84.05 C165.49 66.57, 181.57 51.71, 191.58 38.01 M151.56 84.05 C161.01 72.18, 170.23 61.23, 191.58 38.01 M154.38 83.85 C168.65 67.44, 181.2 53.72, 191.78 40.83 M154.38 83.85 C162.88 74.45, 171.75 63.86, 191.78 40.83 M157.2 83.66 C167.43 72.9, 171.55 66.18, 191.98 43.66 M157.2 83.66 C169.58 67.49, 183.57 53.1, 191.98 43.66 M159.37 84.21 C170.11 75.54, 179.23 63.05, 191.52 47.23 M159.37 84.21 C170.95 71.78, 180.31 59.49, 191.52 47.23 M162.19 84.02 C170.51 72.61, 180.25 63.03, 191.71 50.05 M162.19 84.02 C169.81 72.98, 179.15 63.68, 191.71 50.05 M165.01 83.82 C175.58 71.75, 187.31 59.28, 191.91 52.88 M165.01 83.82 C174.89 73.87, 184.18 62.73, 191.91 52.88 M167.83 83.62 C177.11 71.9, 188.23 63.85, 191.45 56.45 M167.83 83.62 C173.68 75.38, 181.32 67.53, 191.45 56.45 M170.66 83.42 C179.73 73.96, 184.83 65.53, 191.65 59.27 M170.66 83.42 C177.63 75.23, 182.91 69.07, 191.65 59.27 M174.13 82.47 C179.44 80.03, 179.85 74.68, 191.19 62.85 M174.13 82.47 C179.73 76.11, 184.43 72.6, 191.19 62.85 M176.96 82.27 C180.47 76.72, 185.95 71.83, 190.73 66.43 M176.96 82.27 C181.73 74.94, 186.81 69.21, 190.73 66.43 M180.43 81.32 C183.37 77.46, 189.33 73.32, 190.27 70 M180.43 81.32 C182.48 78.24, 185.29 75.35, 190.27 70" stroke="#ffec99" stroke-width="0.25" fill="none"></path><path d="M20.77 0 M20.77 0 C75.1 3.01, 129.47 2.66, 170 0 M20.77 0 C54.77 1.92, 88.93 1.11, 170 0 M170 0 C184.96 1.88, 189.37 5.62, 190.77 20.77 M170 0 C181.76 0.79, 190.49 6.82, 190.77 20.77 M190.77 20.77 C189.73 33.45, 192.4 43.02, 190.77 62.31 M190.77 20.77 C191.01 35.46, 189.66 52.44, 190.77 62.31 M190.77 62.31 C189.51 76.07, 182.27 83.91, 170 83.08 M190.77 62.31 C190.44 76.68, 185.33 84.92, 170 83.08 M170 83.08 C119.2 81.59, 67.62 84.54, 20.77 83.08 M170 83.08 C111.88 84.7, 55.34 84.22, 20.77 83.08 M20.77 83.08 C5.69 84.73, -1.11 76.41, 0 62.31 M20.77 83.08 C7.08 82.58, -0.66 77.06, 0 62.31 M0 62.31 C-0.9 47.45, -1.57 35.35, 0 20.77 M0 62.31 C0.43 53.25, -0.97 45.4, 0 20.77 M0 20.77 C1.97 7.25, 6.94 1.74, 20.77 0 M0 20.77 C-1.67 6.46, 4.8 -1.15, 20.77 0" stroke="#fa5252" stroke-width="0.5" fill="none"></path></g><g stroke-linecap="round" transform="translate(761.8694638694642 153.58724318103322) rotate(0 62 15)"><path d="M5.91 0.62 L121.5 0.39 L122.43 5.44 L122.98 26.1 L120.74 29.05 L117.92 29.71 L5.03 30.69 L2.1 24.33 L-1.28 8.39 L2.89 3.71 L9.05 -1.38" stroke="none" stroke-width="0" fill="#a5d8ff"></path><path d="M7.5 0 M7.5 0 C46.94 -0.18, 89.89 -1.69, 116.5 0 M116.5 0 C121.24 -1.51, 122.07 3.47, 124 7.5 M124 7.5 C124.7 11.17, 123.61 16.41, 124 22.5 M124 22.5 C124.98 27.44, 121.79 30.62, 116.5 30 M116.5 30 C79.48 29.76, 42.51 27.18, 7.5 30 M7.5 30 C3.51 28.08, 1.7 28.82, 0 22.5 M0 22.5 C0.49 18.45, 0.44 16.8, 0 7.5 M0 7.5 C1.63 4.12, 3.88 1.25, 7.5 0" stroke="#343a40" stroke-width="1.5" fill="none" stroke-dasharray="1.5 7"></path></g><g transform="translate(810.4374341453431 158.58724318103322) rotate(0 13.432029724121094 10)"><text x="13.432029724121094" y="0" font-family="Virgil, Segoe UI Emoji" font-size="16px" fill="#343a40" text-anchor="middle" style="white-space: pre;" direction="ltr" dominant-baseline="text-before-edge">[0]</text></g><g stroke-linecap="round" transform="translate(764.869463869464 125.62970072349071) rotate(0 35.5 11)"><path d="M4.4 1.23 L67.36 0.66 L69.27 4.02 L72.08 18.62 L66.31 23.16 L4.72 20.21 L-0.93 19.8 L1.02 7.33 L2.92 0 L7.03 1.06" stroke="none" stroke-width="0" fill="#a5d8ff"></path><path d="M5.5 0 M5.5 0 C25.11 -1.47, 43.92 -1.53, 65.5 0 M65.5 0 C67.23 0.97, 70.78 3.47, 71 5.5 M71 5.5 C70.66 9.83, 71.58 13.76, 71 16.5 M71 16.5 C71.29 20.79, 69.79 21.9, 65.5 22 M65.5 22 C50.79 20.3, 40.62 20.28, 5.5 22 M5.5 22 C3.53 23.32, -1.88 19.91, 0 16.5 M0 16.5 C0.28 14.34, 0.86 12.38, 0 5.5 M0 5.5 C1.38 3.09, 2.77 -1.78, 5.5 0" stroke="#343a40" stroke-width="1.5" fill="none" stroke-dasharray="1.5 7"></path></g><g transform="translate(785.5154294456358 131.34746971100407) rotate(0 14.854034423828125 5.282231012486619)"><text x="14.854034423828125" y="0" font-family="Virgil, Segoe UI Emoji" font-size="8.451569619978596px" fill="#343a40" text-anchor="middle" style="white-space: pre;" direction="ltr" dominant-baseline="text-before-edge">Heading</text></g><g stroke-linecap="round" transform="translate(762.3957796589377 252.00829581261206) rotate(0 62 15)"><path d="M7.81 0.84 L118.45 0.51 L125.49 2.42 L123.87 25.64 L121.68 29.87 L118.39 28.82 L5.33 29.9 L-0.15 25.83 L-1.8 7.45 L1.25 2.53 L7.41 1.31" stroke="none" stroke-width="0" fill="#a5d8ff"></path><path d="M7.5 0 M7.5 0 C43.85 2.48, 81.89 1.85, 116.5 0 M116.5 0 C121.09 0.16, 125.24 3.18, 124 7.5 M124 7.5 C124.38 12.21, 124.35 14, 124 22.5 M124 22.5 C123.26 27.52, 120.83 30.86, 116.5 30 M116.5 30 C77.39 29.65, 34.26 29.24, 7.5 30 M7.5 30 C3.31 30.52, 0.6 28.05, 0 22.5 M0 22.5 C-1.26 16.55, -1 13.12, 0 7.5 M0 7.5 C1.95 4.26, 1.79 -0.83, 7.5 0" stroke="#343a40" stroke-width="1.5" fill="none" stroke-dasharray="1.5 7"></path></g><g transform="translate(810.9637499348166 257.00829581261206) rotate(0 13.432029724121094 10)"><text x="13.432029724121094" y="0" font-family="Virgil, Segoe UI Emoji" font-size="16px" fill="#343a40" text-anchor="middle" style="white-space: pre;" direction="ltr" dominant-baseline="text-before-edge">[0]</text></g><g stroke-linecap="round" transform="translate(765.3957796589377 224.05075335506956) rotate(0 35.5 11)"><path d="M7.46 -1.8 L68.24 0.2 L70.21 4.84 L72.55 17.73 L66.61 22.37 L2.47 21.71 L-1.46 18.85 L-0.63 6.15 L1.29 2.69 L6.49 1.7" stroke="none" stroke-width="0" fill="#a5d8ff"></path><path d="M5.5 0 M5.5 0 C18.33 0.67, 34.31 -0.4, 65.5 0 M65.5 0 C70.41 0.68, 70.02 2.43, 71 5.5 M71 5.5 C71.24 7.9, 70.62 11.81, 71 16.5 M71 16.5 C70.33 21.03, 70.58 21.92, 65.5 22 M65.5 22 C40.99 19.93, 20.13 22.14, 5.5 22 M5.5 22 C2.43 22.55, 0.2 19.86, 0 16.5 M0 16.5 C-0.66 13.4, 1.17 11.39, 0 5.5 M0 5.5 C-0.71 1, 2.32 -0.59, 5.5 0" stroke="#343a40" stroke-width="1.5" fill="none" stroke-dasharray="1.5 7"></path></g><g transform="translate(786.0417452351096 229.7685223425829) rotate(0 14.854034423828125 5.282231012486619)"><text x="14.854034423828125" y="0" font-family="Virgil, Segoe UI Emoji" font-size="8.451569619978596px" fill="#343a40" text-anchor="middle" style="white-space: pre;" direction="ltr" dominant-baseline="text-before-edge">Heading</text></g><g stroke-linecap="round" transform="translate(765.5536743957798 352.5346116020857) rotate(0 62 15)"><path d="M7.57 1.54 L119.17 -0.98 L122.55 5.69 L121.75 25.97 L122.83 29 L117.21 30.91 L3.2 31.37 L1.41 26.11 L0.65 8.53 L0.83 1.47 L6.98 -0.41" stroke="none" stroke-width="0" fill="#a5d8ff"></path><path d="M7.5 0 M7.5 0 C34.63 -0.71, 61.27 -0.46, 116.5 0 M116.5 0 C119.71 -0.41, 125.08 1.71, 124 7.5 M124 7.5 C125.24 14.23, 123.06 19.48, 124 22.5 M124 22.5 C124.96 28.85, 120.17 31.87, 116.5 30 M116.5 30 C94.36 30.07, 68.23 31.33, 7.5 30 M7.5 30 C3.1 30.52, 1.79 27.69, 0 22.5 M0 22.5 C0.86 18.21, 0.36 12.29, 0 7.5 M0 7.5 C-1.44 1.92, 2.89 -0.1, 7.5 0" stroke="#343a40" stroke-width="1.5" fill="none" stroke-dasharray="1.5 7"></path></g><g transform="translate(814.1216446716587 357.5346116020857) rotate(0 13.432029724121094 10)"><text x="13.432029724121094" y="0" font-family="Virgil, Segoe UI Emoji" font-size="16px" fill="#343a40" text-anchor="middle" style="white-space: pre;" direction="ltr" dominant-baseline="text-before-edge">[0]</text></g><g stroke-linecap="round" transform="translate(768.5536743957798 324.5770691445432) rotate(0 35.5 11)"><path d="M4.89 -1.45 L66.92 1.82 L68.87 3.29 L71.36 19.78 L66.21 22.91 L2.08 23.5 L1.28 19.23 L0.65 6.53 L0.33 0.97 L4.98 -0.41" stroke="none" stroke-width="0" fill="#a5d8ff"></path><path d="M5.5 0 M5.5 0 C20.99 -1.15, 35.99 -0.9, 65.5 0 M65.5 0 C67.38 -0.41, 72.08 1.04, 71 5.5 M71 5.5 C71.91 10.44, 70.31 14.29, 71 16.5 M71 16.5 C71.96 21.52, 67.84 23.87, 65.5 22 M65.5 22 C53.82 22.16, 38.13 23.43, 5.5 22 M5.5 22 C2.43 22.52, 1.79 20.36, 0 16.5 M0 16.5 C0.63 13.35, 0.26 9.01, 0 5.5 M0 5.5 C-1.44 1.25, 2.22 -0.1, 5.5 0" stroke="#343a40" stroke-width="1.5" fill="none" stroke-dasharray="1.5 7"></path></g><g transform="translate(789.1996399719517 330.2948381320566) rotate(0 14.854034423828125 5.282231012486619)"><text x="14.854034423828125" y="0" font-family="Virgil, Segoe UI Emoji" font-size="8.451569619978596px" fill="#343a40" text-anchor="middle" style="white-space: pre;" direction="ltr" dominant-baseline="text-before-edge">Heading</text></g><g stroke-linecap="round" transform="translate(768.1852533431484 455.16619054945414) rotate(0 62 15)"><path d="M8.54 0.54 L118.71 1.92 L122.67 3.15 L124.09 24.84 L121.55 26.37 L117.93 30.18 L3.98 28.34 L-0.38 24.97 L1.97 8.01 L2.14 2.84 L9.33 0.74" stroke="none" stroke-width="0" fill="#a5d8ff"></path><path d="M7.5 0 M7.5 0 C31.33 0.21, 55.29 0.02, 116.5 0 M116.5 0 C119.62 -1.97, 123.78 3.3, 124 7.5 M124 7.5 C122.9 12.4, 125.43 15.9, 124 22.5 M124 22.5 C124.48 27.92, 120.82 28.58, 116.5 30 M116.5 30 C84.43 29.68, 50.94 32.18, 7.5 30 M7.5 30 C3.54 30.88, 0.09 25.55, 0 22.5 M0 22.5 C0.48 18.98, 0.71 13.51, 0 7.5 M0 7.5 C-1.12 4.21, 0.83 -0.18, 7.5 0" stroke="#343a40" stroke-width="1.5" fill="none" stroke-dasharray="1.5 7"></path></g><g transform="translate(816.7532236190273 460.16619054945414) rotate(0 13.432029724121094 10)"><text x="13.432029724121094" y="0" font-family="Virgil, Segoe UI Emoji" font-size="16px" fill="#343a40" text-anchor="middle" style="white-space: pre;" direction="ltr" dominant-baseline="text-before-edge">[0]</text></g><g stroke-linecap="round" transform="translate(771.1852533431481 427.20864809191164) rotate(0 35.5 11)"><path d="M3.57 -1.61 L67.47 0.7 L71.58 2.12 L70.26 19.48 L65.54 23.92 L4.85 21.27 L1.72 19.73 L0.71 5.74 L2.2 0.4 L3.61 1.75" stroke="none" stroke-width="0" fill="#a5d8ff"></path><path d="M5.5 0 M5.5 0 C20.34 -0.55, 29.33 1.51, 65.5 0 M65.5 0 C68.42 -1.38, 70.15 1.83, 71 5.5 M71 5.5 C71.52 8.58, 71.39 11.22, 71 16.5 M71 16.5 C70.31 19.23, 70.63 20.01, 65.5 22 M65.5 22 C46.47 19.95, 29.39 22.04, 5.5 22 M5.5 22 C-0.04 20.9, 0.41 22.16, 0 16.5 M0 16.5 C0.6 12.34, -0.01 8.72, 0 5.5 M0 5.5 C-0.62 3.38, 2.05 1.04, 5.5 0" stroke="#343a40" stroke-width="1.5" fill="none" stroke-dasharray="1.5 7"></path></g><g transform="translate(791.83121891932 432.92641707942505) rotate(0 14.854034423828125 5.282231012486619)"><text x="14.854034423828125" y="0" font-family="Virgil, Segoe UI Emoji" font-size="8.451569619978596px" fill="#343a40" text-anchor="middle" style="white-space: pre;" direction="ltr" dominant-baseline="text-before-edge">Heading</text></g><g stroke-linecap="round"><g transform="translate(616.0642399546496 225.7993421052634) rotate(0 52.63305684222155 -35.51580070321447)"><path d="M-0.7 0.1 C16.65 -11.33, 86.28 -57.59, 103.76 -69.35 M1.14 -0.89 C18.89 -12.61, 88.96 -59.72, 105.96 -71.14" stroke="#fa5252" stroke-width="0.5" fill="none"></path></g></g><mask></mask><g stroke-linecap="round"><g transform="translate(618.6958189020179 282.1151315789475) rotate(0 51.78833330354013 -12.657841655004177)"><path d="M-1.08 1.08 C16.43 -3.35, 87.14 -22.01, 104.66 -26.4 M0.55 0.61 C18.03 -3.74, 87.07 -21.38, 104.22 -25.46" stroke="#fa5252" stroke-width="0.5" fill="none"></path></g></g><mask></mask><g stroke-linecap="round"><g transform="translate(620.2747662704389 323.69407894736855) rotate(0 48.44745119523793 15.442829310451856)"><path d="M0.33 0.92 C16.49 5.84, 81.53 24.56, 97.85 29.16 M-0.96 0.36 C14.92 5.48, 80.2 25.71, 96.61 30.53" stroke="#fa5252" stroke-width="0.5" fill="none"></path></g></g><mask></mask><g stroke-linecap="round"><g transform="translate(622.3800294283337 384.74671052631584) rotate(0 53.01621571945708 33.197297557263)"><path d="M-0.51 -0.36 C16.8 10.62, 86.59 55.38, 104.33 66.77 M1.42 -1.6 C19.06 9.46, 89.2 56.73, 106.55 68" stroke="#fa5252" stroke-width="0.5" fill="none"></path></g></g><mask></mask><g transform="translate(239.68266100728096 10) rotate(0 211.39205932617188 22.5)"><text x="0" y="0" font-family="Virgil, Segoe UI Emoji" font-size="36px" fill="#343a40" text-anchor="start" style="white-space: pre;" direction="ltr" dominant-baseline="text-before-edge">1. Divide subs to chunks</text></g><g stroke-linecap="round"><g transform="translate(267.52357009819013 51.70454545454555) rotate(0 193.7065624654293 0.14377515645020367)"><path d="M0.18 -0.2 C64.44 0.01, 321.69 1.29, 386.44 1.66 M-1.18 -1.35 C63.36 -1.54, 323.64 -0.48, 388.6 -0.25" stroke="#343a40" stroke-width="0.5" fill="none"></path></g></g><mask></mask><g stroke-linecap="round"><g transform="translate(375.93266100728107 508.7500000000001) rotate(0 1.081626619026082 75.31991433888675)"><path d="M-0.48 0.63 C0.03 25.45, 2.15 124.41, 2.64 149.47 M1.47 -0.08 C1.88 24.85, 1.74 125.85, 1.77 150.72" stroke="#343a40" stroke-width="0.5" fill="none"></path></g></g><mask></mask><g transform="translate(107.99096014527657 590.901231814653) rotate(0 99.50421142578125 20)"><text x="0" y="0" font-family="Virgil, Segoe UI Emoji" font-size="16px" fill="#343a40" text-anchor="start" style="white-space: pre;" direction="ltr" dominant-baseline="text-before-edge">Every chunk is individually</text><text x="0" y="20" font-family="Virgil, Segoe UI Emoji" font-size="16px" fill="#343a40" text-anchor="start" style="white-space: pre;" direction="ltr" dominant-baseline="text-before-edge">supplied LLM.</text></g><g transform="translate(408.84760350192 566.8365464999671) rotate(0 151.00030517578125 10)"><text x="0" y="0" font-family="Virgil, Segoe UI Emoji" font-size="16px" fill="#fa5252" text-anchor="start" style="white-space: pre;" direction="ltr" dominant-baseline="text-before-edge">- no.of pages depends on no of chunks</text></g></svg>
